<svg xmlns="http://www.w3.org/2000/svg" width="145.9968" height="130.14119999999997" viewBox="0 0 145.9968 130.14119999999997">
<rect x="0" y="0" width="145.9968" height="130.14119999999997" fill="#f8fafc"/>
<rect x="0.5" y="0.5" width="144.9968" height="129.14119999999997" fill="#f8fafc" stroke="#cbd5e1" stroke-width="1"/>


<line x1="77.88659999999999" y1="97.7286" x2="77.88419999999999" y2="78.6582" stroke="#ef4444" stroke-width="1" stroke-dasharray="4 3"><title>$1N21779</title></line>
<line x1="113.58419999999998" y1="75.44219999999999" x2="94.67219999999999" y2="78.6582" stroke="#ef4444" stroke-width="1" stroke-dasharray="4 3"><title>$1N22067</title></line>
<line x1="74.89859999999999" y1="32.4126" x2="74.89859999999999" y2="51.324600000000004" stroke="#ef4444" stroke-width="1" stroke-dasharray="4 3"><title>$1N21863</title></line>
<line x1="53.401799999999994" y1="32.4126" x2="53.40179999999999" y2="51.324600000000004" stroke="#ef4444" stroke-width="1" stroke-dasharray="4 3"><title>$1N21902</title></line>
<line x1="41.51819999999999" y1="72.6642" x2="61.096199999999996" y2="68.27099999999999" stroke="#ef4444" stroke-width="1" stroke-dasharray="4 3"><title>$1N22187</title></line>


<g>




  <circle cx="77.28899999999999" cy="102.52859999999998" r="1.1999999999999997" fill="none" stroke="#dc2626" stroke-width="0.7"/>
<polygon points="99.20579999999998,99.45539999999998 91.90619999999998,99.45539999999998 91.90619999999998,97.61099999999999 99.2382,97.61099999999999 99.2382,97.6914 99.20579999999998,99.45539999999998" fill="none" stroke="#dc2626" stroke-width="0.7" stroke-linecap="round" stroke-linejoin="round"/>
<polygon points="81.3462,99.3126 74.0466,99.3126 74.0466,97.46699999999998 81.37859999999999,97.46699999999998 81.37859999999999,97.5474 81.3462,99.3126" fill="none" stroke="#dc2626" stroke-width="0.7" stroke-linecap="round" stroke-linejoin="round"/>
<polygon points="78.58859999999999,94.5642 78.58859999999999,101.8638 76.743,101.8638 76.743,94.53179999999999 76.82339999999999,94.53179999999999 78.58859999999999,94.5642" fill="none" stroke="#dc2626" stroke-width="0.7" stroke-linecap="round" stroke-linejoin="round"/>
<polygon points="96.4878,102.52859999999998 77.2878,102.52859999999998 77.2878,92.92859999999999 96.4878,92.92859999999999 96.4878,102.52859999999998" fill="none" stroke="#dc2626" stroke-width="0.7" stroke-linecap="round" stroke-linejoin="round"/>
<polyline points="84.48059999999998,106.1406 69.2406,106.1406" fill="none" stroke="#64748b" stroke-width="3.048" stroke-linecap="round" stroke-linejoin="round"/>
<polyline points="69.2406,106.1406 69.2406,89.3166" fill="none" stroke="#64748b" stroke-width="3.048" stroke-linecap="round" stroke-linejoin="round"/>
<polyline points="69.2406,89.3166 84.48059999999998,89.3166" fill="none" stroke="#64748b" stroke-width="3.048" stroke-linecap="round" stroke-linejoin="round"/>
<polyline points="85.809,97.75259999999999 88.3146,97.7298" fill="none" stroke="#64748b" stroke-width="3.048" stroke-linecap="round" stroke-linejoin="round"/>
<polyline points="90.4878,106.12859999999999 103.68779999999998,106.12859999999999" fill="none" stroke="#64748b" stroke-width="3.048" stroke-linecap="round" stroke-linejoin="round"/>
<polyline points="103.68779999999998,106.12859999999999 107.2878,102.52859999999998" fill="none" stroke="#64748b" stroke-width="3.048" stroke-linecap="round" stroke-linejoin="round"/>
<polyline points="107.2878,102.52859999999998 107.2878,92.92859999999999" fill="none" stroke="#64748b" stroke-width="3.048" stroke-linecap="round" stroke-linejoin="round"/>
<polyline points="107.2878,92.92859999999999 103.68779999999998,89.3286" fill="none" stroke="#64748b" stroke-width="3.048" stroke-linecap="round" stroke-linejoin="round"/>
<polyline points="103.68779999999998,89.3286 90.4878,89.3286" fill="none" stroke="#64748b" stroke-width="3.048" stroke-linecap="round" stroke-linejoin="round"/>
<polyline points="85.809,102.52859999999998 85.809,93.1686" fill="none" stroke="#64748b" stroke-width="3.048" stroke-linecap="round" stroke-linejoin="round"/>
  <text x="88.26419999999999" y="98.92859999999999" font-size="11" font-family="Arial" text-anchor="middle" fill="#dc2626">LED1</text>
  <text x="88.26419999999999" y="84.5286" font-size="8" font-family="Arial" text-anchor="middle" fill="#dc2626">r0 top</text>
</g>
<g>




  <circle cx="118.38419999999999" cy="76.0398" r="1.200000000000001" fill="none" stroke="#dc2626" stroke-width="0.7"/>
<polygon points="115.31099999999999,54.12299999999999 115.31099999999999,61.4226 113.46659999999999,61.4226 113.46659999999999,54.0906 113.547,54.0906 115.31099999999999,54.12299999999999" fill="none" stroke="#dc2626" stroke-width="0.7" stroke-linecap="round" stroke-linejoin="round"/>
<polygon points="115.16819999999998,71.98259999999999 115.16819999999998,79.28219999999999 113.3226,79.28219999999999 113.3226,71.9502 113.403,71.9502 115.16819999999998,71.98259999999999" fill="none" stroke="#dc2626" stroke-width="0.7" stroke-linecap="round" stroke-linejoin="round"/>
<polygon points="110.41980000000001,74.7402 117.71940000000001,74.7402 117.71940000000001,76.58579999999999 110.3874,76.58579999999999 110.3874,76.5054 110.41980000000001,74.7402" fill="none" stroke="#dc2626" stroke-width="0.7" stroke-linecap="round" stroke-linejoin="round"/>
<polygon points="118.38419999999999,56.840999999999994 118.38419999999999,76.041 108.78419999999998,76.041 108.78419999999998,56.840999999999994 118.38419999999999,56.840999999999994" fill="none" stroke="#dc2626" stroke-width="0.7" stroke-linecap="round" stroke-linejoin="round"/>
<polyline points="121.99619999999999,68.84819999999999 121.99619999999999,84.0882" fill="none" stroke="#64748b" stroke-width="3.048" stroke-linecap="round" stroke-linejoin="round"/>
<polyline points="121.99619999999999,84.0882 105.1722,84.0882" fill="none" stroke="#64748b" stroke-width="3.048" stroke-linecap="round" stroke-linejoin="round"/>
<polyline points="105.1722,84.0882 105.1722,68.8482" fill="none" stroke="#64748b" stroke-width="3.048" stroke-linecap="round" stroke-linejoin="round"/>
<polyline points="113.6082,67.5198 113.5854,65.01419999999999" fill="none" stroke="#64748b" stroke-width="3.048" stroke-linecap="round" stroke-linejoin="round"/>
<polyline points="121.9842,62.840999999999994 121.9842,49.64099999999999" fill="none" stroke="#64748b" stroke-width="3.048" stroke-linecap="round" stroke-linejoin="round"/>
<polyline points="121.9842,49.64099999999999 118.38419999999999,46.041" fill="none" stroke="#64748b" stroke-width="3.048" stroke-linecap="round" stroke-linejoin="round"/>
<polyline points="118.38419999999999,46.041 108.78419999999998,46.041" fill="none" stroke="#64748b" stroke-width="3.048" stroke-linecap="round" stroke-linejoin="round"/>
<polyline points="108.78419999999998,46.041 105.1842,49.641000000000005" fill="none" stroke="#64748b" stroke-width="3.048" stroke-linecap="round" stroke-linejoin="round"/>
<polyline points="105.1842,49.641000000000005 105.1842,62.840999999999994" fill="none" stroke="#64748b" stroke-width="3.048" stroke-linecap="round" stroke-linejoin="round"/>
<polyline points="118.38419999999999,67.5198 109.02420000000001,67.5198" fill="none" stroke="#64748b" stroke-width="3.048" stroke-linecap="round" stroke-linejoin="round"/>
  <text x="113.58419999999998" y="66.2646" font-size="11" font-family="Arial" text-anchor="middle" fill="#dc2626">LED2</text>
  <text x="113.58419999999998" y="51.864599999999996" font-size="8" font-family="Arial" text-anchor="middle" fill="#dc2626">r270 top</text>
</g>
<g>




  <circle cx="74.301" cy="37.212599999999995" r="1.1999999999999997" fill="none" stroke="#dc2626" stroke-width="0.7"/>
<polygon points="96.21779999999998,34.139399999999995 88.9182,34.139399999999995 88.9182,32.295 96.25019999999999,32.295 96.25019999999999,32.3754 96.21779999999998,34.139399999999995" fill="none" stroke="#dc2626" stroke-width="0.7" stroke-linecap="round" stroke-linejoin="round"/>
<polygon points="78.3582,33.9966 71.0586,33.9966 71.0586,32.151 78.39059999999999,32.151 78.39059999999999,32.2314 78.3582,33.9966" fill="none" stroke="#dc2626" stroke-width="0.7" stroke-linecap="round" stroke-linejoin="round"/>
<polygon points="75.6006,29.248199999999997 75.6006,36.5478 73.755,36.5478 73.755,29.2158 73.83539999999999,29.2158 75.6006,29.248199999999997" fill="none" stroke="#dc2626" stroke-width="0.7" stroke-linecap="round" stroke-linejoin="round"/>
<polygon points="93.4998,37.212599999999995 74.29979999999999,37.212599999999995 74.29979999999999,27.6126 93.4998,27.6126 93.4998,37.212599999999995" fill="none" stroke="#dc2626" stroke-width="0.7" stroke-linecap="round" stroke-linejoin="round"/>
<polyline points="81.4926,40.824600000000004 66.2526,40.824600000000004" fill="none" stroke="#64748b" stroke-width="3.048" stroke-linecap="round" stroke-linejoin="round"/>
<polyline points="66.2526,40.824600000000004 66.2526,24.0006" fill="none" stroke="#64748b" stroke-width="3.048" stroke-linecap="round" stroke-linejoin="round"/>
<polyline points="66.2526,24.0006 81.4926,24.0006" fill="none" stroke="#64748b" stroke-width="3.048" stroke-linecap="round" stroke-linejoin="round"/>
<polyline points="82.821,32.4366 85.3266,32.4138" fill="none" stroke="#64748b" stroke-width="3.048" stroke-linecap="round" stroke-linejoin="round"/>
<polyline points="87.4998,40.812599999999996 100.69979999999998,40.812599999999996" fill="none" stroke="#64748b" stroke-width="3.048" stroke-linecap="round" stroke-linejoin="round"/>
<polyline points="100.69979999999998,40.812599999999996 104.29979999999999,37.212599999999995" fill="none" stroke="#64748b" stroke-width="3.048" stroke-linecap="round" stroke-linejoin="round"/>
<polyline points="104.29979999999999,37.212599999999995 104.29979999999999,27.6126" fill="none" stroke="#64748b" stroke-width="3.048" stroke-linecap="round" stroke-linejoin="round"/>
<polyline points="104.29979999999999,27.6126 100.69979999999998,24.012600000000003" fill="none" stroke="#64748b" stroke-width="3.048" stroke-linecap="round" stroke-linejoin="round"/>
<polyline points="100.69979999999998,24.012600000000003 87.4998,24.012600000000003" fill="none" stroke="#64748b" stroke-width="3.048" stroke-linecap="round" stroke-linejoin="round"/>
<polyline points="82.821,37.212599999999995 82.821,27.852600000000002" fill="none" stroke="#64748b" stroke-width="3.048" stroke-linecap="round" stroke-linejoin="round"/>
  <text x="85.27619999999999" y="33.6126" font-size="11" font-family="Arial" text-anchor="middle" fill="#dc2626">LED4</text>
  <text x="85.27619999999999" y="19.2126" font-size="8" font-family="Arial" text-anchor="middle" fill="#dc2626">r0 top</text>
</g>
<g>




  <circle cx="53.9994" cy="27.6126" r="1.200000000000001" fill="none" stroke="#dc2626" stroke-width="0.7"/>
<polygon points="32.0826,30.6858 39.3822,30.6858 39.3822,32.5302 32.0502,32.5302 32.0502,32.4498 32.0826,30.6858" fill="none" stroke="#dc2626" stroke-width="0.7" stroke-linecap="round" stroke-linejoin="round"/>
<polygon points="49.94219999999999,30.828599999999998 57.24179999999999,30.828599999999998 57.24179999999999,32.6742 49.90979999999999,32.6742 49.90979999999999,32.5938 49.94219999999999,30.828599999999998" fill="none" stroke="#dc2626" stroke-width="0.7" stroke-linecap="round" stroke-linejoin="round"/>
<polygon points="52.699799999999996,35.577 52.699799999999996,28.277399999999997 54.5454,28.277399999999997 54.5454,35.6094 54.46499999999999,35.6094 52.699799999999996,35.577" fill="none" stroke="#dc2626" stroke-width="0.7" stroke-linecap="round" stroke-linejoin="round"/>
<polygon points="34.80059999999999,27.6126 54.0006,27.6126 54.0006,37.212599999999995 34.80059999999999,37.212599999999995 34.80059999999999,27.6126" fill="none" stroke="#dc2626" stroke-width="0.7" stroke-linecap="round" stroke-linejoin="round"/>
<polyline points="46.8078,24.0006 62.047799999999995,24.0006" fill="none" stroke="#64748b" stroke-width="3.048" stroke-linecap="round" stroke-linejoin="round"/>
<polyline points="62.047799999999995,24.0006 62.047799999999995,40.8246" fill="none" stroke="#64748b" stroke-width="3.048" stroke-linecap="round" stroke-linejoin="round"/>
<polyline points="62.047799999999995,40.8246 46.8078,40.824600000000004" fill="none" stroke="#64748b" stroke-width="3.048" stroke-linecap="round" stroke-linejoin="round"/>
<polyline points="45.4794,32.3886 42.9738,32.4114" fill="none" stroke="#64748b" stroke-width="3.048" stroke-linecap="round" stroke-linejoin="round"/>
<polyline points="40.80059999999999,24.012600000000003 27.600599999999996,24.012600000000003" fill="none" stroke="#64748b" stroke-width="3.048" stroke-linecap="round" stroke-linejoin="round"/>
<polyline points="27.600599999999996,24.012600000000003 24.0006,27.6126" fill="none" stroke="#64748b" stroke-width="3.048" stroke-linecap="round" stroke-linejoin="round"/>
<polyline points="24.0006,27.6126 24.0006,37.2126" fill="none" stroke="#64748b" stroke-width="3.048" stroke-linecap="round" stroke-linejoin="round"/>
<polyline points="24.0006,37.2126 27.600599999999996,40.8126" fill="none" stroke="#64748b" stroke-width="3.048" stroke-linecap="round" stroke-linejoin="round"/>
<polyline points="27.600599999999996,40.8126 40.800599999999996,40.812599999999996" fill="none" stroke="#64748b" stroke-width="3.048" stroke-linecap="round" stroke-linejoin="round"/>
<polyline points="45.4794,27.6126 45.4794,36.9726" fill="none" stroke="#64748b" stroke-width="3.048" stroke-linecap="round" stroke-linejoin="round"/>
  <text x="43.02419999999999" y="33.6126" font-size="11" font-family="Arial" text-anchor="middle" fill="#dc2626">LED5</text>
  <text x="43.02419999999999" y="19.2126" font-size="8" font-family="Arial" text-anchor="middle" fill="#dc2626">r180 top</text>
</g>
<g>




  <polygon points="80.88419999999999,79.46459999999999 74.88419999999999,79.46459999999999 74.88419999999999,67.46459999999999 80.88419999999999,67.46459999999999 80.88419999999999,79.46459999999999" fill="none" stroke="#dc2626" stroke-width="0.7" stroke-linecap="round" stroke-linejoin="round"/>
<polyline points="83.86739999999999,76.179 83.86739999999999,84.795" fill="none" stroke="#64748b" stroke-width="1.8288000000000002" stroke-linecap="round" stroke-linejoin="round"/>
<polyline points="83.86739999999999,84.795 71.901,84.795" fill="none" stroke="#64748b" stroke-width="1.8288000000000002" stroke-linecap="round" stroke-linejoin="round"/>
<polyline points="71.901,84.795 71.901,76.179" fill="none" stroke="#64748b" stroke-width="1.8288000000000002" stroke-linecap="round" stroke-linejoin="round"/>
<polyline points="83.86739999999999,70.75019999999999 83.86739999999999,62.13419999999999" fill="none" stroke="#64748b" stroke-width="1.8288000000000002" stroke-linecap="round" stroke-linejoin="round"/>
<polyline points="83.86739999999999,62.13419999999999 71.901,62.13419999999999" fill="none" stroke="#64748b" stroke-width="1.8288000000000002" stroke-linecap="round" stroke-linejoin="round"/>
<polyline points="71.901,62.13419999999999 71.901,70.75019999999999" fill="none" stroke="#64748b" stroke-width="1.8288000000000002" stroke-linecap="round" stroke-linejoin="round"/>
<circle cx="80.883" cy="79.46340000000001" r="0.7200000000000006" fill="none" stroke="#dc2626" stroke-width="0.7"/>
  <text x="77.88419999999999" y="74.6646" font-size="11" font-family="Arial" text-anchor="middle" fill="#dc2626">R6</text>
  <text x="77.88419999999999" y="60.2646" font-size="8" font-family="Arial" text-anchor="middle" fill="#dc2626">r90 top</text>
</g>
<g>




  <polygon points="86.09219999999999,48.324600000000004 86.09219999999999,54.324600000000004 74.09219999999999,54.324600000000004 74.09219999999999,48.324600000000004 86.09219999999999,48.324600000000004" fill="none" stroke="#dc2626" stroke-width="0.7" stroke-linecap="round" stroke-linejoin="round"/>
<polyline points="82.80659999999999,45.3414 91.42259999999999,45.3414" fill="none" stroke="#64748b" stroke-width="1.8288000000000002" stroke-linecap="round" stroke-linejoin="round"/>
<polyline points="91.42259999999999,45.3414 91.42259999999999,57.3078" fill="none" stroke="#64748b" stroke-width="1.8288000000000002" stroke-linecap="round" stroke-linejoin="round"/>
<polyline points="91.42259999999999,57.3078 82.80659999999999,57.3078" fill="none" stroke="#64748b" stroke-width="1.8288000000000002" stroke-linecap="round" stroke-linejoin="round"/>
<polyline points="77.3778,45.3414 68.7618,45.3414" fill="none" stroke="#64748b" stroke-width="1.8288000000000002" stroke-linecap="round" stroke-linejoin="round"/>
<polyline points="68.7618,45.3414 68.7618,57.3078" fill="none" stroke="#64748b" stroke-width="1.8288000000000002" stroke-linecap="round" stroke-linejoin="round"/>
<polyline points="68.7618,57.3078 77.3778,57.3078" fill="none" stroke="#64748b" stroke-width="1.8288000000000002" stroke-linecap="round" stroke-linejoin="round"/>
<circle cx="86.09099999999998" cy="48.3258" r="0.7200000000000006" fill="none" stroke="#dc2626" stroke-width="0.7"/>
  <text x="80.09219999999999" y="52.52459999999999" font-size="11" font-family="Arial" text-anchor="middle" fill="#dc2626">R9</text>
  <text x="80.09219999999999" y="38.124599999999994" font-size="8" font-family="Arial" text-anchor="middle" fill="#dc2626">r0 top</text>
</g>
<g>




  <polygon points="42.20819999999999,54.324600000000004 42.20819999999999,48.324600000000004 54.20819999999999,48.324600000000004 54.20819999999999,54.324600000000004 42.20819999999999,54.324600000000004" fill="none" stroke="#dc2626" stroke-width="0.7" stroke-linecap="round" stroke-linejoin="round"/>
<polyline points="45.49379999999999,57.3078 36.87779999999999,57.3078" fill="none" stroke="#64748b" stroke-width="1.8288000000000002" stroke-linecap="round" stroke-linejoin="round"/>
<polyline points="36.87779999999999,57.3078 36.87779999999999,45.3414" fill="none" stroke="#64748b" stroke-width="1.8288000000000002" stroke-linecap="round" stroke-linejoin="round"/>
<polyline points="36.87779999999999,45.3414 45.49379999999999,45.3414" fill="none" stroke="#64748b" stroke-width="1.8288000000000002" stroke-linecap="round" stroke-linejoin="round"/>
<polyline points="50.92259999999999,57.3078 59.53859999999999,57.3078" fill="none" stroke="#64748b" stroke-width="1.8288000000000002" stroke-linecap="round" stroke-linejoin="round"/>
<polyline points="59.53859999999999,57.3078 59.53859999999999,45.34139999999999" fill="none" stroke="#64748b" stroke-width="1.8288000000000002" stroke-linecap="round" stroke-linejoin="round"/>
<polyline points="59.53859999999999,45.34139999999999 50.92259999999999,45.3414" fill="none" stroke="#64748b" stroke-width="1.8288000000000002" stroke-linecap="round" stroke-linejoin="round"/>
<circle cx="42.20939999999999" cy="54.32339999999999" r="0.7200000000000006" fill="none" stroke="#dc2626" stroke-width="0.7"/>
  <text x="48.20819999999999" y="52.52459999999999" font-size="11" font-family="Arial" text-anchor="middle" fill="#dc2626">R10</text>
  <text x="48.20819999999999" y="38.124599999999994" font-size="8" font-family="Arial" text-anchor="middle" fill="#dc2626">r180 top</text>
</g>
<g>




  <circle cx="36.67739999999999" cy="72.0582" r="0.7200000000000006" fill="none" stroke="#dc2626" stroke-width="0.7"/>
<polygon points="36.71939999999999,72.05699999999999 46.319399999999995,72.05699999999999 46.319399999999995,91.25699999999999 36.71939999999999,91.257 36.71939999999999,72.05699999999999" fill="none" stroke="#dc2626" stroke-width="0.7" stroke-linecap="round" stroke-linejoin="round"/>
<polyline points="37.63739999999999,84.297 37.63739999999999,84.1782" fill="none" stroke="#64748b" stroke-width="1.7999999999999998" stroke-linecap="round" stroke-linejoin="round"/>
<polyline points="37.63739999999999,84.1782 41.59859999999999,80.21699999999998" fill="none" stroke="#64748b" stroke-width="1.7999999999999998" stroke-linecap="round" stroke-linejoin="round"/>
<polyline points="45.797399999999996,84.297 45.678599999999996,84.297" fill="none" stroke="#64748b" stroke-width="1.7999999999999998" stroke-linecap="round" stroke-linejoin="round"/>
<polyline points="45.678599999999996,84.297 41.59859999999999,80.21699999999998" fill="none" stroke="#64748b" stroke-width="1.7999999999999998" stroke-linecap="round" stroke-linejoin="round"/>
<polyline points="45.797399999999996,84.297 37.63739999999999,84.297" fill="none" stroke="#64748b" stroke-width="1.7999999999999998" stroke-linecap="round" stroke-linejoin="round"/>
<polyline points="50.5986,84.53819999999999 50.5986,98.33819999999999" fill="none" stroke="#64748b" stroke-width="1.7999999999999998" stroke-linecap="round" stroke-linejoin="round"/>
<polyline points="32.59739999999999,84.5382 32.59739999999999,98.33819999999999" fill="none" stroke="#64748b" stroke-width="1.7999999999999998" stroke-linecap="round" stroke-linejoin="round"/>
<polyline points="50.5974,98.33819999999999 32.8386,98.33819999999999" fill="none" stroke="#64748b" stroke-width="1.7999999999999998" stroke-linecap="round" stroke-linejoin="round"/>
<polyline points="32.569799999999994,79.97819999999999 32.56979999999999,67.3758" fill="none" stroke="#64748b" stroke-width="1.7999999999999998" stroke-linecap="round" stroke-linejoin="round"/>
<polyline points="37.370999999999995,63.777 36.16979999999999,63.777" fill="none" stroke="#64748b" stroke-width="1.7999999999999998" stroke-linecap="round" stroke-linejoin="round"/>
<polyline points="36.16979999999999,63.777 32.56979999999999,67.3758" fill="none" stroke="#64748b" stroke-width="1.7999999999999998" stroke-linecap="round" stroke-linejoin="round"/>
<polyline points="45.76979999999999,63.777 37.370999999999995,63.777" fill="none" stroke="#64748b" stroke-width="1.7999999999999998" stroke-linecap="round" stroke-linejoin="round"/>
<polyline points="45.76979999999999,63.777 46.972199999999994,63.777" fill="none" stroke="#64748b" stroke-width="1.7999999999999998" stroke-linecap="round" stroke-linejoin="round"/>
<polyline points="46.972199999999994,63.777 50.571,67.3758" fill="none" stroke="#64748b" stroke-width="1.7999999999999998" stroke-linecap="round" stroke-linejoin="round"/>
<polyline points="50.571,79.97819999999999 50.571,67.3758" fill="none" stroke="#64748b" stroke-width="1.7999999999999998" stroke-linecap="round" stroke-linejoin="round"/>
<polyline points="41.59859999999999,84.297 41.59859999999999,80.21699999999998" fill="none" stroke="#64748b" stroke-width="1.7999999999999998" stroke-linecap="round" stroke-linejoin="round"/>
<polygon points="42.25739999999999,68.8122 42.25739999999999,75.29220000000001 40.697399999999995,75.29220000000001 40.697399999999995,68.8122 42.25739999999999,68.8122" fill="none" stroke="#dc2626" stroke-width="0.7" stroke-linecap="round" stroke-linejoin="round"/>
<polygon points="38.31419999999999,90.4674 44.7954,90.4674 44.7954,92.0262 38.31419999999999,92.0262 38.31419999999999,90.4674" fill="none" stroke="#dc2626" stroke-width="0.7" stroke-linecap="round" stroke-linejoin="round"/>
<polygon points="42.340199999999996,87.999 42.340199999999996,94.479 40.780199999999994,94.479 40.780199999999994,87.999 42.340199999999996,87.999" fill="none" stroke="#dc2626" stroke-width="0.7" stroke-linecap="round" stroke-linejoin="round"/>
  <text x="41.584199999999996" y="82.3326" font-size="11" font-family="Arial" text-anchor="middle" fill="#dc2626">LED3</text>
  <text x="41.584199999999996" y="67.9326" font-size="8" font-family="Arial" text-anchor="middle" fill="#dc2626">r270 top</text>
</g>
<g>




  <polygon points="97.6722,79.46459999999999 91.67219999999999,79.46459999999999 91.67219999999999,67.46459999999999 97.6722,67.46459999999999 97.6722,79.46459999999999" fill="none" stroke="#dc2626" stroke-width="0.7" stroke-linecap="round" stroke-linejoin="round"/>
<polyline points="100.6554,76.179 100.6554,84.795" fill="none" stroke="#64748b" stroke-width="1.8288000000000002" stroke-linecap="round" stroke-linejoin="round"/>
<polyline points="100.6554,84.795 88.689,84.795" fill="none" stroke="#64748b" stroke-width="1.8288000000000002" stroke-linecap="round" stroke-linejoin="round"/>
<polyline points="88.689,84.795 88.689,76.179" fill="none" stroke="#64748b" stroke-width="1.8288000000000002" stroke-linecap="round" stroke-linejoin="round"/>
<polyline points="100.6554,70.75019999999999 100.6554,62.13419999999999" fill="none" stroke="#64748b" stroke-width="1.8288000000000002" stroke-linecap="round" stroke-linejoin="round"/>
<polyline points="100.6554,62.13419999999999 88.689,62.13419999999999" fill="none" stroke="#64748b" stroke-width="1.8288000000000002" stroke-linecap="round" stroke-linejoin="round"/>
<polyline points="88.689,62.13419999999999 88.689,70.75019999999999" fill="none" stroke="#64748b" stroke-width="1.8288000000000002" stroke-linecap="round" stroke-linejoin="round"/>
<circle cx="97.671" cy="79.46340000000001" r="0.7200000000000006" fill="none" stroke="#dc2626" stroke-width="0.7"/>
  <text x="94.67219999999999" y="74.6646" font-size="11" font-family="Arial" text-anchor="middle" fill="#dc2626">R7</text>
  <text x="94.67219999999999" y="60.2646" font-size="8" font-family="Arial" text-anchor="middle" fill="#dc2626">r90 top</text>
</g>
<g>




  <polygon points="58.096199999999996,67.46459999999999 64.0962,67.46459999999999 64.0962,79.46459999999999 58.096199999999996,79.46459999999999 58.096199999999996,67.46459999999999" fill="none" stroke="#dc2626" stroke-width="0.7" stroke-linecap="round" stroke-linejoin="round"/>
<polyline points="55.112999999999985,70.75019999999999 55.112999999999985,62.13419999999999" fill="none" stroke="#64748b" stroke-width="1.8288000000000002" stroke-linecap="round" stroke-linejoin="round"/>
<polyline points="55.112999999999985,62.13419999999999 67.07939999999999,62.13419999999999" fill="none" stroke="#64748b" stroke-width="1.8288000000000002" stroke-linecap="round" stroke-linejoin="round"/>
<polyline points="67.07939999999999,62.13419999999999 67.07939999999999,70.75019999999999" fill="none" stroke="#64748b" stroke-width="1.8288000000000002" stroke-linecap="round" stroke-linejoin="round"/>
<polyline points="55.113,76.179 55.113,84.795" fill="none" stroke="#64748b" stroke-width="1.8288000000000002" stroke-linecap="round" stroke-linejoin="round"/>
<polyline points="55.113,84.795 67.07939999999999,84.795" fill="none" stroke="#64748b" stroke-width="1.8288000000000002" stroke-linecap="round" stroke-linejoin="round"/>
<polyline points="67.07939999999999,84.795 67.07939999999999,76.179" fill="none" stroke="#64748b" stroke-width="1.8288000000000002" stroke-linecap="round" stroke-linejoin="round"/>
<circle cx="58.09739999999999" cy="67.4658" r="0.7200000000000013" fill="none" stroke="#dc2626" stroke-width="0.7"/>
  <text x="61.096199999999996" y="74.6646" font-size="11" font-family="Arial" text-anchor="middle" fill="#dc2626">R8</text>
  <text x="61.096199999999996" y="60.2646" font-size="8" font-family="Arial" text-anchor="middle" fill="#dc2626">r270 top</text>
</g>
<g><polygon points="91.089,92.92859999999999 100.68900000000001,92.92859999999999 100.68900000000001,102.52859999999998 91.089,102.52859999999998" fill="#dc2626" opacity="0.9"/><title>LED1.2 top</title></g>
<g><polygon points="73.08659999999999,92.92859999999999 82.6866,92.92859999999999 82.6866,102.52859999999998 73.08659999999999,102.52859999999998" fill="#dc2626" opacity="0.9"/><title>LED1.1 top</title></g>
<g><polygon points="108.78419999999998,62.2398 108.78419999999998,52.639799999999994 118.38419999999999,52.639799999999994 118.38419999999999,62.2398" fill="#dc2626" opacity="0.9"/><title>LED2.2 top</title></g>
<g><polygon points="108.78419999999998,80.2422 108.78419999999998,70.6422 118.38419999999999,70.6422 118.38419999999999,80.2422" fill="#dc2626" opacity="0.9"/><title>LED2.1 top</title></g>
<g><polygon points="88.101,27.6126 97.701,27.6126 97.701,37.212599999999995 88.101,37.212599999999995" fill="#dc2626" opacity="0.9"/><title>LED4.2 top</title></g>
<g><polygon points="70.0986,27.6126 79.6986,27.6126 79.6986,37.212599999999995 70.0986,37.212599999999995" fill="#dc2626" opacity="0.9"/><title>LED4.1 top</title></g>
<g><polygon points="40.1994,37.212599999999995 30.599399999999996,37.212599999999995 30.599399999999996,27.6126 40.1994,27.6126" fill="#dc2626" opacity="0.9"/><title>LED5.2 top</title></g>
<g><polygon points="58.20179999999999,37.212599999999995 48.6018,37.212599999999995 48.6018,27.6126 58.20179999999999,27.612599999999993" fill="#dc2626" opacity="0.9"/><title>LED5.1 top</title></g>
<g><polygon points="81.12419999999999,64.8768 81.12419999999999,71.6652 74.6442,71.6652 74.64419999999998,64.8768" fill="#dc2626" opacity="0.9"/><title>R6.2 top</title></g>
<g><polygon points="81.12419999999999,75.26400000000001 81.12419999999999,82.0524 74.6442,82.0524 74.6442,75.26400000000001" fill="#dc2626" opacity="0.9"/><title>R6.1 top</title></g>
<g><polygon points="71.50439999999999,48.084599999999995 78.29279999999999,48.084599999999995 78.29279999999999,54.5646 71.50439999999999,54.5646" fill="#dc2626" opacity="0.9"/><title>R9.2 top</title></g>
<g><polygon points="81.89159999999998,48.084599999999995 88.67999999999999,48.084599999999995 88.67999999999999,54.5646 81.89159999999998,54.5646" fill="#dc2626" opacity="0.9"/><title>R9.1 top</title></g>
<g><polygon points="56.795999999999985,54.5646 50.00759999999999,54.5646 50.00759999999999,48.084599999999995 56.795999999999985,48.084599999999995" fill="#dc2626" opacity="0.9"/><title>R10.2 top</title></g>
<g><polygon points="46.40879999999999,54.5646 39.62039999999999,54.564600000000006 39.62039999999999,48.084599999999995 46.408799999999985,48.084599999999995" fill="#dc2626" opacity="0.9"/><title>R10.1 top</title></g>
<g><polygon points="36.721799999999995,95.44019999999999 36.721799999999995,85.8402 46.321799999999996,85.8402 46.321799999999996,95.44019999999999" fill="#dc2626" opacity="0.9"/><title>LED3.2 top</title></g>
<g><polygon points="36.718199999999996,77.4642 36.71819999999999,67.8642 46.31819999999999,67.8642 46.31819999999999,77.46419999999999" fill="#dc2626" opacity="0.9"/><title>LED3.1 top</title></g>
<g><polygon points="97.9122,64.8768 97.9122,71.6652 91.4322,71.6652 91.4322,64.8768" fill="#dc2626" opacity="0.9"/><title>R7.2 top</title></g>
<g><polygon points="97.9122,75.26400000000001 97.9122,82.0524 91.4322,82.0524 91.4322,75.26400000000001" fill="#dc2626" opacity="0.9"/><title>R7.1 top</title></g>
<g><polygon points="57.85619999999999,82.0524 57.85619999999999,75.26400000000001 64.33619999999999,75.26400000000001 64.33619999999999,82.0524" fill="#dc2626" opacity="0.9"/><title>R8.2 top</title></g>
<g><polygon points="57.85619999999999,71.6652 57.85619999999999,64.8768 64.33619999999999,64.8768 64.33619999999999,71.6652" fill="#dc2626" opacity="0.9"/><title>R8.1 top</title></g>

</svg>
