<svg xmlns="http://www.w3.org/2000/svg" width="326.2926" height="288.21" viewBox="0 0 326.2926 288.21">
<rect x="0" y="0" width="326.2926" height="288.21" fill="#f8fafc"/>
<rect x="0.5" y="0.5" width="325.2926" height="287.21" fill="#f8fafc" stroke="#cbd5e1" stroke-width="1"/>

<line x1="278.5086" y1="108.33420000000001" x2="260.5086" y2="134.59859999999998" stroke="#ef4444" stroke-width="1" stroke-dasharray="4 3"><title>I_IN</title></line>
<line x1="32.52060000000001" y1="153.11579999999998" x2="53.77260000000002" y2="153.11579999999998" stroke="#ef4444" stroke-width="1" stroke-dasharray="4 3"><title>AFE_3V3</title></line>
<line x1="53.77260000000002" y1="153.11579999999998" x2="85.84500000000001" y2="153.1122" stroke="#ef4444" stroke-width="1" stroke-dasharray="4 3"><title>AFE_3V3</title></line>
<line x1="231.6834" y1="208.07459999999998" x2="199.8522" y2="214.0722" stroke="#ef4444" stroke-width="1" stroke-dasharray="4 3"><title>U2_HDC</title></line>
<line x1="199.8522" y1="214.0722" x2="199.84860000000003" y2="239.1294" stroke="#ef4444" stroke-width="1" stroke-dasharray="4 3"><title>U2_HDC</title></line>
<line x1="199.8522" y1="214.0722" x2="199.8522" y2="183.5922" stroke="#ef4444" stroke-width="1" stroke-dasharray="4 3"><title>U2_HDC</title></line>
<line x1="237.6834" y1="181.5306" x2="237.6834" y2="160.27859999999998" stroke="#ef4444" stroke-width="1" stroke-dasharray="4 3"><title>U2_HLDO</title></line>
<line x1="237.6834" y1="160.27859999999998" x2="199.8522" y2="153.1122" stroke="#ef4444" stroke-width="1" stroke-dasharray="4 3"><title>U2_HLDO</title></line>
<line x1="53.77260000000002" y1="190.68779999999998" x2="85.84500000000001" y2="168.35219999999998" stroke="#ef4444" stroke-width="1" stroke-dasharray="4 3"><title>U2_LDC</title></line>
<line x1="53.77260000000002" y1="190.68779999999998" x2="85.84500000000001" y2="214.0722" stroke="#ef4444" stroke-width="1" stroke-dasharray="4 3"><title>U2_LDC</title></line>
<line x1="236.5086" y1="134.59859999999998" x2="199.8522" y2="137.87219999999996" stroke="#ef4444" stroke-width="1" stroke-dasharray="4 3"><title>I_FILTER_P</title></line>
<line x1="236.5086" y1="134.59859999999998" x2="215.16060000000002" y2="76.9878" stroke="#ef4444" stroke-width="1" stroke-dasharray="4 3"><title>I_FILTER_P</title></line>
<line x1="239.2086" y1="80.58659999999999" x2="215.16060000000002" y2="60.18659999999999" stroke="#ef4444" stroke-width="1" stroke-dasharray="4 3"><title>I_FILTER_N</title></line>
<line x1="239.2086" y1="80.58659999999999" x2="199.8522" y2="122.63219999999998" stroke="#ef4444" stroke-width="1" stroke-dasharray="4 3"><title>I_FILTER_N</title></line>


<g>




  <polygon points="37.32060000000001,154.31459999999998 27.720600000000005,154.31459999999998 27.720600000000005,135.11579999999998 37.32060000000001,135.11579999999998 37.32060000000001,154.31459999999998" fill="none" stroke="#dc2626" stroke-width="0.7" stroke-linecap="round" stroke-linejoin="round"/>
<polyline points="41.03580000000001,148.077 41.03580000000001,157.677" fill="none" stroke="#64748b" stroke-width="3.048" stroke-linecap="round" stroke-linejoin="round"/>
<polyline points="41.041800000000016,141.35219999999998 41.041800000000016,131.75220000000002" fill="none" stroke="#64748b" stroke-width="3.048" stroke-linecap="round" stroke-linejoin="round"/>
<polyline points="23.9994,148.077 23.9994,157.677" fill="none" stroke="#64748b" stroke-width="3.048" stroke-linecap="round" stroke-linejoin="round"/>
<polyline points="24.00540000000001,141.35219999999998 24.00540000000001,131.75220000000002" fill="none" stroke="#64748b" stroke-width="3.048" stroke-linecap="round" stroke-linejoin="round"/>
<polyline points="37.31820000000002,161.39459999999997 27.717000000000013,161.39459999999997" fill="none" stroke="#64748b" stroke-width="3.048" stroke-linecap="round" stroke-linejoin="round"/>
<polyline points="27.724200000000017,128.03459999999998 37.324200000000005,128.03459999999998" fill="none" stroke="#64748b" stroke-width="3.048" stroke-linecap="round" stroke-linejoin="round"/>
<polyline points="24.00540000000001,131.7534 27.724200000000017,128.03459999999998" fill="none" stroke="#64748b" stroke-width="3.048" stroke-linecap="round" stroke-linejoin="round"/>
<polyline points="37.32300000000001,128.03459999999998 41.041800000000016,131.7534" fill="none" stroke="#64748b" stroke-width="3.048" stroke-linecap="round" stroke-linejoin="round"/>
<polyline points="41.03580000000001,157.677 37.31820000000002,161.39459999999997" fill="none" stroke="#64748b" stroke-width="3.048" stroke-linecap="round" stroke-linejoin="round"/>
<polyline points="27.71820000000001,161.39459999999997 23.9994,157.677" fill="none" stroke="#64748b" stroke-width="3.048" stroke-linecap="round" stroke-linejoin="round"/>
<circle cx="37.32180000000001" cy="154.31699999999998" r="0.7200000000000006" fill="none" stroke="#dc2626" stroke-width="0.7"/>
  <text x="32.52060000000001" y="145.9146" font-size="11" font-family="Arial" text-anchor="middle" fill="#dc2626">C11</text>
  <text x="32.52060000000001" y="131.5146" font-size="8" font-family="Arial" text-anchor="middle" fill="#dc2626">r90 top</text>
</g>
<g>




  <polygon points="230.48460000000003,212.87460000000002 230.48460000000003,203.27460000000002 249.6834,203.27459999999996 249.6834,212.87460000000002 230.48460000000003,212.87460000000002" fill="none" stroke="#dc2626" stroke-width="0.7" stroke-linecap="round" stroke-linejoin="round"/>
<polyline points="236.72220000000004,216.58979999999997 227.12220000000002,216.58979999999997" fill="none" stroke="#64748b" stroke-width="3.048" stroke-linecap="round" stroke-linejoin="round"/>
<polyline points="243.447,216.5958 253.04700000000003,216.5958" fill="none" stroke="#64748b" stroke-width="3.048" stroke-linecap="round" stroke-linejoin="round"/>
<polyline points="236.72220000000004,199.55339999999998 227.12220000000002,199.55339999999998" fill="none" stroke="#64748b" stroke-width="3.048" stroke-linecap="round" stroke-linejoin="round"/>
<polyline points="243.447,199.5594 253.04700000000003,199.5594" fill="none" stroke="#64748b" stroke-width="3.048" stroke-linecap="round" stroke-linejoin="round"/>
<polyline points="223.40460000000002,212.87219999999996 223.40460000000002,203.27100000000002" fill="none" stroke="#64748b" stroke-width="3.048" stroke-linecap="round" stroke-linejoin="round"/>
<polyline points="256.7646,203.2782 256.7646,212.87819999999996" fill="none" stroke="#64748b" stroke-width="3.048" stroke-linecap="round" stroke-linejoin="round"/>
<polyline points="253.0458,199.5594 256.7646,203.2782" fill="none" stroke="#64748b" stroke-width="3.048" stroke-linecap="round" stroke-linejoin="round"/>
<polyline points="256.7646,212.877 253.0458,216.5958" fill="none" stroke="#64748b" stroke-width="3.048" stroke-linecap="round" stroke-linejoin="round"/>
<polyline points="227.12220000000002,216.58979999999997 223.40460000000002,212.87219999999996" fill="none" stroke="#64748b" stroke-width="3.048" stroke-linecap="round" stroke-linejoin="round"/>
<polyline points="223.40460000000002,203.27219999999997 227.12220000000002,199.55339999999998" fill="none" stroke="#64748b" stroke-width="3.048" stroke-linecap="round" stroke-linejoin="round"/>
<circle cx="230.48220000000003" cy="212.87579999999997" r="0.7199999999999953" fill="none" stroke="#dc2626" stroke-width="0.7"/>
  <text x="240.0846" y="209.27460000000002" font-size="11" font-family="Arial" text-anchor="middle" fill="#dc2626">C14</text>
  <text x="240.0846" y="194.8746" font-size="8" font-family="Arial" text-anchor="middle" fill="#dc2626">r180 top</text>
</g>
<g>




  <polygon points="236.48460000000003,186.3306 236.48460000000003,176.73059999999998 255.6834,176.73059999999998 255.6834,186.33059999999998 236.48460000000003,186.3306" fill="none" stroke="#dc2626" stroke-width="0.7" stroke-linecap="round" stroke-linejoin="round"/>
<polyline points="242.7222,190.04579999999999 233.12220000000002,190.04579999999999" fill="none" stroke="#64748b" stroke-width="3.048" stroke-linecap="round" stroke-linejoin="round"/>
<polyline points="249.447,190.05180000000001 259.047,190.05180000000001" fill="none" stroke="#64748b" stroke-width="3.048" stroke-linecap="round" stroke-linejoin="round"/>
<polyline points="242.7222,173.00939999999997 233.12220000000002,173.00939999999997" fill="none" stroke="#64748b" stroke-width="3.048" stroke-linecap="round" stroke-linejoin="round"/>
<polyline points="249.447,173.0154 259.047,173.0154" fill="none" stroke="#64748b" stroke-width="3.048" stroke-linecap="round" stroke-linejoin="round"/>
<polyline points="229.40460000000002,186.32819999999998 229.40460000000002,176.727" fill="none" stroke="#64748b" stroke-width="3.048" stroke-linecap="round" stroke-linejoin="round"/>
<polyline points="262.7646,176.7342 262.7646,186.33419999999998" fill="none" stroke="#64748b" stroke-width="3.048" stroke-linecap="round" stroke-linejoin="round"/>
<polyline points="259.0458,173.0154 262.7646,176.7342" fill="none" stroke="#64748b" stroke-width="3.048" stroke-linecap="round" stroke-linejoin="round"/>
<polyline points="262.7646,186.333 259.0458,190.05180000000001" fill="none" stroke="#64748b" stroke-width="3.048" stroke-linecap="round" stroke-linejoin="round"/>
<polyline points="233.12220000000002,190.04579999999999 229.40460000000002,186.32819999999998" fill="none" stroke="#64748b" stroke-width="3.048" stroke-linecap="round" stroke-linejoin="round"/>
<polyline points="229.40460000000002,176.7282 233.12220000000002,173.00939999999997" fill="none" stroke="#64748b" stroke-width="3.048" stroke-linecap="round" stroke-linejoin="round"/>
<circle cx="236.48220000000003" cy="186.3318" r="0.7199999999999953" fill="none" stroke="#dc2626" stroke-width="0.7"/>
  <text x="246.0846" y="182.73059999999998" font-size="11" font-family="Arial" text-anchor="middle" fill="#dc2626">C16</text>
  <text x="246.0846" y="168.3306" font-size="8" font-family="Arial" text-anchor="middle" fill="#dc2626">r180 top</text>
</g>
<g>




  <polygon points="58.57260000000002,154.31459999999998 48.972600000000014,154.31459999999998 48.972600000000014,135.11579999999998 58.57260000000002,135.11579999999998 58.57260000000002,154.31459999999998" fill="none" stroke="#dc2626" stroke-width="0.7" stroke-linecap="round" stroke-linejoin="round"/>
<polyline points="62.28780000000002,148.077 62.28780000000002,157.677" fill="none" stroke="#64748b" stroke-width="3.048" stroke-linecap="round" stroke-linejoin="round"/>
<polyline points="62.29380000000002,141.35219999999998 62.29380000000002,131.75220000000002" fill="none" stroke="#64748b" stroke-width="3.048" stroke-linecap="round" stroke-linejoin="round"/>
<polyline points="45.25140000000001,148.077 45.25140000000001,157.677" fill="none" stroke="#64748b" stroke-width="3.048" stroke-linecap="round" stroke-linejoin="round"/>
<polyline points="45.25740000000002,141.35219999999998 45.25740000000002,131.75220000000002" fill="none" stroke="#64748b" stroke-width="3.048" stroke-linecap="round" stroke-linejoin="round"/>
<polyline points="58.570200000000014,161.39459999999997 48.96900000000002,161.39459999999997" fill="none" stroke="#64748b" stroke-width="3.048" stroke-linecap="round" stroke-linejoin="round"/>
<polyline points="48.97620000000002,128.03459999999998 58.576200000000014,128.03459999999998" fill="none" stroke="#64748b" stroke-width="3.048" stroke-linecap="round" stroke-linejoin="round"/>
<polyline points="45.25740000000002,131.7534 48.97620000000002,128.03459999999998" fill="none" stroke="#64748b" stroke-width="3.048" stroke-linecap="round" stroke-linejoin="round"/>
<polyline points="58.57500000000002,128.03459999999998 62.29380000000002,131.7534" fill="none" stroke="#64748b" stroke-width="3.048" stroke-linecap="round" stroke-linejoin="round"/>
<polyline points="62.28780000000002,157.677 58.570200000000014,161.39459999999997" fill="none" stroke="#64748b" stroke-width="3.048" stroke-linecap="round" stroke-linejoin="round"/>
<polyline points="48.97020000000002,161.39459999999997 45.25140000000001,157.677" fill="none" stroke="#64748b" stroke-width="3.048" stroke-linecap="round" stroke-linejoin="round"/>
<circle cx="58.57380000000002" cy="154.31699999999998" r="0.7200000000000006" fill="none" stroke="#dc2626" stroke-width="0.7"/>
  <text x="53.77260000000002" y="145.9146" font-size="11" font-family="Arial" text-anchor="middle" fill="#dc2626">C10</text>
  <text x="53.77260000000002" y="131.5146" font-size="8" font-family="Arial" text-anchor="middle" fill="#dc2626">r90 top</text>
</g>
<g>




  <polygon points="195.0486,237.93059999999997 204.6486,237.93059999999997 204.64860000000004,257.12940000000003 195.04860000000002,257.12940000000003 195.0486,237.93059999999997" fill="none" stroke="#dc2626" stroke-width="0.7" stroke-linecap="round" stroke-linejoin="round"/>
<polyline points="191.3334,244.16819999999998 191.3334,234.56820000000002" fill="none" stroke="#64748b" stroke-width="3.048" stroke-linecap="round" stroke-linejoin="round"/>
<polyline points="191.3274,250.893 191.3274,260.49299999999994" fill="none" stroke="#64748b" stroke-width="3.048" stroke-linecap="round" stroke-linejoin="round"/>
<polyline points="208.36980000000003,244.16819999999998 208.36980000000003,234.5682" fill="none" stroke="#64748b" stroke-width="3.048" stroke-linecap="round" stroke-linejoin="round"/>
<polyline points="208.3638,250.893 208.3638,260.49299999999994" fill="none" stroke="#64748b" stroke-width="3.048" stroke-linecap="round" stroke-linejoin="round"/>
<polyline points="195.05100000000004,230.8506 204.6522,230.8506" fill="none" stroke="#64748b" stroke-width="3.048" stroke-linecap="round" stroke-linejoin="round"/>
<polyline points="204.645,264.2106 195.04500000000004,264.2106" fill="none" stroke="#64748b" stroke-width="3.048" stroke-linecap="round" stroke-linejoin="round"/>
<polyline points="208.3638,260.4918 204.645,264.2106" fill="none" stroke="#64748b" stroke-width="3.048" stroke-linecap="round" stroke-linejoin="round"/>
<polyline points="195.0462,264.2106 191.3274,260.4918" fill="none" stroke="#64748b" stroke-width="3.048" stroke-linecap="round" stroke-linejoin="round"/>
<polyline points="191.3334,234.56820000000002 195.05100000000004,230.8506" fill="none" stroke="#64748b" stroke-width="3.048" stroke-linecap="round" stroke-linejoin="round"/>
<polyline points="204.65100000000004,230.8506 208.36980000000003,234.5682" fill="none" stroke="#64748b" stroke-width="3.048" stroke-linecap="round" stroke-linejoin="round"/>
<circle cx="195.04740000000004" cy="237.9282" r="0.7199999999999953" fill="none" stroke="#dc2626" stroke-width="0.7"/>
  <text x="199.84860000000003" y="248.7306" font-size="11" font-family="Arial" text-anchor="middle" fill="#dc2626">C13</text>
  <text x="199.84860000000003" y="234.33059999999998" font-size="8" font-family="Arial" text-anchor="middle" fill="#dc2626">r270 top</text>
</g>
<g>




  <polygon points="58.57260000000002,191.8866 48.972600000000014,191.8866 48.972600000000014,172.68779999999998 58.57260000000002,172.68779999999998 58.57260000000002,191.8866" fill="none" stroke="#dc2626" stroke-width="0.7" stroke-linecap="round" stroke-linejoin="round"/>
<polyline points="62.28780000000002,185.649 62.28780000000002,195.249" fill="none" stroke="#64748b" stroke-width="3.048" stroke-linecap="round" stroke-linejoin="round"/>
<polyline points="62.29380000000002,178.92419999999998 62.29380000000002,169.3242" fill="none" stroke="#64748b" stroke-width="3.048" stroke-linecap="round" stroke-linejoin="round"/>
<polyline points="45.25140000000001,185.649 45.25140000000001,195.249" fill="none" stroke="#64748b" stroke-width="3.048" stroke-linecap="round" stroke-linejoin="round"/>
<polyline points="45.25740000000002,178.92419999999998 45.25740000000002,169.3242" fill="none" stroke="#64748b" stroke-width="3.048" stroke-linecap="round" stroke-linejoin="round"/>
<polyline points="58.570200000000014,198.96659999999997 48.96900000000002,198.96659999999997" fill="none" stroke="#64748b" stroke-width="3.048" stroke-linecap="round" stroke-linejoin="round"/>
<polyline points="48.97620000000002,165.6066 58.576200000000014,165.6066" fill="none" stroke="#64748b" stroke-width="3.048" stroke-linecap="round" stroke-linejoin="round"/>
<polyline points="45.25740000000002,169.32539999999997 48.97620000000002,165.6066" fill="none" stroke="#64748b" stroke-width="3.048" stroke-linecap="round" stroke-linejoin="round"/>
<polyline points="58.57500000000002,165.6066 62.29380000000002,169.32539999999997" fill="none" stroke="#64748b" stroke-width="3.048" stroke-linecap="round" stroke-linejoin="round"/>
<polyline points="62.28780000000002,195.249 58.570200000000014,198.96659999999997" fill="none" stroke="#64748b" stroke-width="3.048" stroke-linecap="round" stroke-linejoin="round"/>
<polyline points="48.97020000000002,198.96659999999997 45.25140000000001,195.249" fill="none" stroke="#64748b" stroke-width="3.048" stroke-linecap="round" stroke-linejoin="round"/>
<circle cx="58.57380000000002" cy="191.88899999999998" r="0.7199999999999953" fill="none" stroke="#dc2626" stroke-width="0.7"/>
  <text x="53.77260000000002" y="183.4866" font-size="11" font-family="Arial" text-anchor="middle" fill="#dc2626">C12</text>
  <text x="53.77260000000002" y="169.08659999999998" font-size="8" font-family="Arial" text-anchor="middle" fill="#dc2626">r90 top</text>
</g>
<g>




  <polygon points="236.48460000000003,165.0786 236.48460000000003,155.4786 255.6834,155.47859999999997 255.6834,165.0786 236.48460000000003,165.0786" fill="none" stroke="#dc2626" stroke-width="0.7" stroke-linecap="round" stroke-linejoin="round"/>
<polyline points="242.7222,168.79379999999998 233.12220000000002,168.79379999999998" fill="none" stroke="#64748b" stroke-width="3.048" stroke-linecap="round" stroke-linejoin="round"/>
<polyline points="249.447,168.7998 259.047,168.7998" fill="none" stroke="#64748b" stroke-width="3.048" stroke-linecap="round" stroke-linejoin="round"/>
<polyline points="242.7222,151.7574 233.12220000000002,151.7574" fill="none" stroke="#64748b" stroke-width="3.048" stroke-linecap="round" stroke-linejoin="round"/>
<polyline points="249.447,151.7634 259.047,151.7634" fill="none" stroke="#64748b" stroke-width="3.048" stroke-linecap="round" stroke-linejoin="round"/>
<polyline points="229.40460000000002,165.0762 229.40460000000002,155.475" fill="none" stroke="#64748b" stroke-width="3.048" stroke-linecap="round" stroke-linejoin="round"/>
<polyline points="262.7646,155.48219999999998 262.7646,165.08219999999997" fill="none" stroke="#64748b" stroke-width="3.048" stroke-linecap="round" stroke-linejoin="round"/>
<polyline points="259.0458,151.7634 262.7646,155.48219999999998" fill="none" stroke="#64748b" stroke-width="3.048" stroke-linecap="round" stroke-linejoin="round"/>
<polyline points="262.7646,165.081 259.0458,168.7998" fill="none" stroke="#64748b" stroke-width="3.048" stroke-linecap="round" stroke-linejoin="round"/>
<polyline points="233.12220000000002,168.79379999999998 229.40460000000002,165.0762" fill="none" stroke="#64748b" stroke-width="3.048" stroke-linecap="round" stroke-linejoin="round"/>
<polyline points="229.40460000000002,155.47619999999998 233.12220000000002,151.7574" fill="none" stroke="#64748b" stroke-width="3.048" stroke-linecap="round" stroke-linejoin="round"/>
<circle cx="236.48220000000003" cy="165.07979999999998" r="0.7199999999999953" fill="none" stroke="#dc2626" stroke-width="0.7"/>
  <text x="246.0846" y="161.4786" font-size="11" font-family="Arial" text-anchor="middle" fill="#dc2626">C15</text>
  <text x="246.0846" y="147.0786" font-size="8" font-family="Arial" text-anchor="middle" fill="#dc2626">r180 top</text>
</g>
<g>




  <polyline points="301.9878,41.5242 301.9878,24.30539999999999" fill="none" stroke="#64748b" stroke-width="1.8288000000000002" stroke-linecap="round" stroke-linejoin="round"/>
<polyline points="301.9878,24.30539999999999 255.02940000000004,24.30539999999999" fill="none" stroke="#64748b" stroke-width="1.8288000000000002" stroke-linecap="round" stroke-linejoin="round"/>
<polyline points="255.02940000000004,24.30539999999999 255.02940000000004,41.5242" fill="none" stroke="#64748b" stroke-width="1.8288000000000002" stroke-linecap="round" stroke-linejoin="round"/>
<polyline points="301.9878,101.553 301.9878,118.77180000000001" fill="none" stroke="#64748b" stroke-width="1.8288000000000002" stroke-linecap="round" stroke-linejoin="round"/>
<polyline points="301.9878,118.77180000000001 255.02940000000004,118.77180000000001" fill="none" stroke="#64748b" stroke-width="1.8288000000000002" stroke-linecap="round" stroke-linejoin="round"/>
<polyline points="255.02940000000004,118.77180000000001 255.02940000000004,101.553" fill="none" stroke="#64748b" stroke-width="1.8288000000000002" stroke-linecap="round" stroke-linejoin="round"/>
<circle cx="297.7074" cy="109.6386" r="0.720000000000006" fill="none" stroke="#dc2626" stroke-width="0.7"/>
<polygon points="297.7086,109.33859999999999 259.30860000000007,109.33859999999999 259.30860000000007,33.738600000000005 297.7086,33.738600000000005 297.7086,109.33859999999999" fill="none" stroke="#dc2626" stroke-width="0.7" stroke-linecap="round" stroke-linejoin="round"/>
  <text x="278.5086" y="72.73859999999999" font-size="11" font-family="Arial" text-anchor="middle" fill="#dc2626">R6</text>
  <text x="278.5086" y="58.33859999999999" font-size="8" font-family="Arial" text-anchor="middle" fill="#dc2626">r90 top</text>
</g>
<g>




  <polygon points="260.5086,126.94859999999998 260.5086,142.24859999999998 236.5086,142.24859999999998 236.5086,126.94859999999998 260.5086,126.94859999999998" fill="none" stroke="#dc2626" stroke-width="0.7" stroke-linecap="round" stroke-linejoin="round"/>
<polyline points="242.7942,123.59339999999997 227.3754,123.59339999999997" fill="none" stroke="#64748b" stroke-width="1.8288000000000002" stroke-linecap="round" stroke-linejoin="round"/>
<polyline points="227.3754,123.59339999999997 227.3754,145.60379999999998" fill="none" stroke="#64748b" stroke-width="1.8288000000000002" stroke-linecap="round" stroke-linejoin="round"/>
<polyline points="227.3754,145.60379999999998 242.7942,145.60379999999998" fill="none" stroke="#64748b" stroke-width="1.8288000000000002" stroke-linecap="round" stroke-linejoin="round"/>
<polyline points="254.22300000000004,123.59339999999997 269.64180000000005,123.59339999999997" fill="none" stroke="#64748b" stroke-width="1.8288000000000002" stroke-linecap="round" stroke-linejoin="round"/>
<polyline points="269.64180000000005,123.59339999999997 269.64180000000005,145.60379999999998" fill="none" stroke="#64748b" stroke-width="1.8288000000000002" stroke-linecap="round" stroke-linejoin="round"/>
<polyline points="269.64180000000005,145.60379999999998 254.22300000000004,145.60379999999998" fill="none" stroke="#64748b" stroke-width="1.8288000000000002" stroke-linecap="round" stroke-linejoin="round"/>
<circle cx="260.5086" cy="126.94859999999998" r="0.720000000000006" fill="none" stroke="#dc2626" stroke-width="0.7"/>
  <text x="248.5086" y="135.7986" font-size="11" font-family="Arial" text-anchor="middle" fill="#dc2626">R7</text>
  <text x="248.5086" y="121.39859999999999" font-size="8" font-family="Arial" text-anchor="middle" fill="#dc2626">r0 top</text>
</g>
<g>




  <polygon points="231.5586,56.586600000000004 246.85860000000002,56.58659999999998 246.85860000000002,80.58659999999999 231.55860000000004,80.58659999999999 231.5586,56.586600000000004" fill="none" stroke="#dc2626" stroke-width="0.7" stroke-linecap="round" stroke-linejoin="round"/>
<polyline points="228.20340000000002,74.301 228.20340000000002,89.71979999999999" fill="none" stroke="#64748b" stroke-width="1.8288000000000002" stroke-linecap="round" stroke-linejoin="round"/>
<polyline points="228.20340000000002,89.71979999999999 250.2138,89.71979999999999" fill="none" stroke="#64748b" stroke-width="1.8288000000000002" stroke-linecap="round" stroke-linejoin="round"/>
<polyline points="250.2138,89.71979999999999 250.2138,74.30099999999999" fill="none" stroke="#64748b" stroke-width="1.8288000000000002" stroke-linecap="round" stroke-linejoin="round"/>
<polyline points="228.20340000000002,62.8722 228.20340000000002,47.453399999999995" fill="none" stroke="#64748b" stroke-width="1.8288000000000002" stroke-linecap="round" stroke-linejoin="round"/>
<polyline points="228.20340000000002,47.453399999999995 250.2138,47.453399999999995" fill="none" stroke="#64748b" stroke-width="1.8288000000000002" stroke-linecap="round" stroke-linejoin="round"/>
<polyline points="250.2138,47.453399999999995 250.2138,62.8722" fill="none" stroke="#64748b" stroke-width="1.8288000000000002" stroke-linecap="round" stroke-linejoin="round"/>
<circle cx="231.5586" cy="56.586600000000004" r="0.720000000000006" fill="none" stroke="#dc2626" stroke-width="0.7"/>
  <text x="239.2086" y="69.78659999999999" font-size="11" font-family="Arial" text-anchor="middle" fill="#dc2626">R8</text>
  <text x="239.2086" y="55.38659999999999" font-size="8" font-family="Arial" text-anchor="middle" fill="#dc2626">r270 top</text>
</g>
<g>




  <polygon points="219.9606,78.1866 210.36060000000003,78.1866 210.36060000000003,58.98779999999999 219.9606,58.98779999999999 219.9606,78.1866" fill="none" stroke="#dc2626" stroke-width="0.7" stroke-linecap="round" stroke-linejoin="round"/>
<polyline points="223.67580000000004,71.94899999999998 223.67580000000004,81.549" fill="none" stroke="#64748b" stroke-width="3.048" stroke-linecap="round" stroke-linejoin="round"/>
<polyline points="223.6818,65.2242 223.6818,55.62419999999999" fill="none" stroke="#64748b" stroke-width="3.048" stroke-linecap="round" stroke-linejoin="round"/>
<polyline points="206.63940000000002,71.94899999999998 206.63940000000002,81.549" fill="none" stroke="#64748b" stroke-width="3.048" stroke-linecap="round" stroke-linejoin="round"/>
<polyline points="206.6454,65.2242 206.6454,55.62419999999999" fill="none" stroke="#64748b" stroke-width="3.048" stroke-linecap="round" stroke-linejoin="round"/>
<polyline points="219.9582,85.26659999999998 210.357,85.26659999999998" fill="none" stroke="#64748b" stroke-width="3.048" stroke-linecap="round" stroke-linejoin="round"/>
<polyline points="210.36420000000004,51.9066 219.96420000000003,51.9066" fill="none" stroke="#64748b" stroke-width="3.048" stroke-linecap="round" stroke-linejoin="round"/>
<polyline points="206.6454,55.625399999999985 210.36420000000004,51.9066" fill="none" stroke="#64748b" stroke-width="3.048" stroke-linecap="round" stroke-linejoin="round"/>
<polyline points="219.963,51.9066 223.6818,55.625399999999985" fill="none" stroke="#64748b" stroke-width="3.048" stroke-linecap="round" stroke-linejoin="round"/>
<polyline points="223.67580000000004,81.549 219.9582,85.26659999999998" fill="none" stroke="#64748b" stroke-width="3.048" stroke-linecap="round" stroke-linejoin="round"/>
<polyline points="210.35820000000004,85.26659999999998 206.63940000000002,81.549" fill="none" stroke="#64748b" stroke-width="3.048" stroke-linecap="round" stroke-linejoin="round"/>
<circle cx="219.96180000000004" cy="78.189" r="0.7199999999999953" fill="none" stroke="#dc2626" stroke-width="0.7"/>
  <text x="215.16060000000002" y="69.78659999999999" font-size="11" font-family="Arial" text-anchor="middle" fill="#dc2626">C9</text>
  <text x="215.16060000000002" y="55.38659999999999" font-size="8" font-family="Arial" text-anchor="middle" fill="#dc2626">r90 top</text>
</g>
<g>




  <circle cx="204.7986" cy="222.5346" r="0.7199999999999953" fill="none" stroke="#dc2626" stroke-width="0.7"/>
<circle cx="209.59980000000002" cy="214.0722" r="1.8012000000000015" fill="none" stroke="#dc2626" stroke-width="3.5999999999999996"/>
<polygon points="187.84860000000003,222.5322 97.84860000000002,222.5322 97.84860000000002,98.9322 187.84860000000003,98.9322 187.84860000000003,222.5322" fill="none" stroke="#dc2626" stroke-width="0.7" stroke-linecap="round" stroke-linejoin="round"/>
<polyline points="182.70540000000003,223.4466 102.99180000000001,223.4466" fill="none" stroke="#64748b" stroke-width="1.8288000000000002" stroke-linecap="round" stroke-linejoin="round"/>
<polyline points="102.99180000000001,223.4466 102.99180000000001,98.0178" fill="none" stroke="#64748b" stroke-width="1.8288000000000002" stroke-linecap="round" stroke-linejoin="round"/>
<polyline points="102.99180000000001,98.0178 182.70540000000003,98.0178" fill="none" stroke="#64748b" stroke-width="1.8288000000000002" stroke-linecap="round" stroke-linejoin="round"/>
<polyline points="182.70540000000003,98.0178 182.70540000000003,223.4466" fill="none" stroke="#64748b" stroke-width="1.8288000000000002" stroke-linecap="round" stroke-linejoin="round"/>
<circle cx="173.67660000000004" cy="214.0722" r="1.8012000000000015" fill="none" stroke="#64748b" stroke-width="3.5999999999999996"/>
<circle cx="199.8522" cy="222.945" r="1.8012000000000015" fill="none" stroke="#64748b" stroke-width="3.5999999999999996"/>
  <text x="142.84860000000003" y="162.58259999999999" font-size="11" font-family="Arial" text-anchor="middle" fill="#dc2626">U2</text>
  <text x="142.84860000000003" y="148.18259999999998" font-size="8" font-family="Arial" text-anchor="middle" fill="#dc2626">r90 top</text>
</g>
<g><polygon points="37.9206,131.5146 37.9206,141.1146 27.120600000000017,141.1146 27.120600000000017,131.5146" fill="#dc2626" opacity="0.9"/><title>C11.2 top</title></g>
<g><polygon points="37.9206,148.31579999999997 37.9206,157.9158 27.120600000000017,157.9158 27.120600000000017,148.31579999999997" fill="#dc2626" opacity="0.9"/><title>C11.1 top</title></g>
<g><polygon points="253.2846,213.47459999999998 243.68460000000005,213.47459999999998 243.68460000000005,202.6746 253.2846,202.6746" fill="#dc2626" opacity="0.9"/><title>C14.2 top</title></g>
<g><polygon points="236.48340000000002,213.47459999999998 226.88340000000002,213.47459999999998 226.88340000000002,202.6746 236.48340000000002,202.6746" fill="#dc2626" opacity="0.9"/><title>C14.1 top</title></g>
<g><polygon points="259.2846,186.93059999999997 249.68460000000005,186.93059999999997 249.68460000000005,176.13060000000002 259.2846,176.1306" fill="#dc2626" opacity="0.9"/><title>C16.2 top</title></g>
<g><polygon points="242.4834,186.93059999999997 232.88340000000002,186.93059999999997 232.88340000000002,176.13060000000002 242.4834,176.13060000000002" fill="#dc2626" opacity="0.9"/><title>C16.1 top</title></g>
<g><polygon points="59.17260000000002,131.5146 59.17260000000002,141.1146 48.37260000000002,141.1146 48.37260000000002,131.5146" fill="#dc2626" opacity="0.9"/><title>C10.2 top</title></g>
<g><polygon points="59.17260000000002,148.31579999999997 59.17260000000002,157.9158 48.37260000000002,157.9158 48.37260000000002,148.31579999999997" fill="#dc2626" opacity="0.9"/><title>C10.1 top</title></g>
<g><polygon points="194.44860000000003,260.7306 194.44860000000003,251.13060000000002 205.2486,251.13060000000002 205.2486,260.7306" fill="#dc2626" opacity="0.9"/><title>C13.2 top</title></g>
<g><polygon points="194.44860000000003,243.9294 194.44860000000003,234.32940000000002 205.2486,234.32940000000002 205.2486,243.9294" fill="#dc2626" opacity="0.9"/><title>C13.1 top</title></g>
<g><polygon points="59.17260000000002,169.08659999999998 59.17260000000002,178.6866 48.37260000000002,178.6866 48.37260000000002,169.08659999999998" fill="#dc2626" opacity="0.9"/><title>C12.2 top</title></g>
<g><polygon points="59.17260000000002,185.88779999999997 59.17260000000002,195.4878 48.37260000000002,195.4878 48.37260000000002,185.88779999999997" fill="#dc2626" opacity="0.9"/><title>C12.1 top</title></g>
<g><polygon points="259.2846,165.6786 249.68460000000005,165.6786 249.68460000000005,154.8786 259.2846,154.8786" fill="#dc2626" opacity="0.9"/><title>C15.2 top</title></g>
<g><polygon points="242.4834,165.6786 232.88340000000002,165.6786 232.88340000000002,154.8786 242.4834,154.8786" fill="#dc2626" opacity="0.9"/><title>C15.1 top</title></g>
<g><polygon points="299.2446,27.047999999999995 299.2446,42.438 257.7726,42.438 257.7726,27.047999999999995" fill="#dc2626" opacity="0.9"/><title>R6.2 top</title></g>
<g><polygon points="299.2446,100.63919999999999 299.2446,116.0292 257.7726,116.0292 257.7726,100.63919999999999" fill="#dc2626" opacity="0.9"/><title>R6.1 top</title></g>
<g><polygon points="229.7136,126.33659999999998 243.30360000000002,126.33659999999998 243.30360000000002,142.86059999999998 229.7136,142.86059999999998" fill="#dc2626" opacity="0.9"/><title>R7.2 top</title></g>
<g><polygon points="253.7136,126.33659999999998 267.3036,126.33659999999998 267.3036,142.86059999999998 253.7136,142.86059999999998" fill="#dc2626" opacity="0.9"/><title>R7.1 top</title></g>
<g><polygon points="230.94660000000002,87.38159999999999 230.94660000000002,73.79159999999999 247.4706,73.79159999999999 247.4706,87.38159999999999" fill="#dc2626" opacity="0.9"/><title>R8.2 top</title></g>
<g><polygon points="230.94660000000002,63.381599999999985 230.94660000000002,49.7916 247.4706,49.79159999999998 247.4706,63.381599999999985" fill="#dc2626" opacity="0.9"/><title>R8.1 top</title></g>
<g><polygon points="220.56060000000002,55.38659999999999 220.56060000000002,64.9866 209.7606,64.9866 209.7606,55.38659999999999" fill="#dc2626" opacity="0.9"/><title>C9.2 top</title></g>
<g><polygon points="220.56060000000002,72.18779999999998 220.56060000000002,81.7878 209.7606,81.7878 209.7606,72.18779999999998" fill="#dc2626" opacity="0.9"/><title>C9.1 top</title></g>
<g><polygon points="214.2552,210.62819999999996 214.2552,217.51619999999997 185.44920000000002,217.51619999999997 185.44920000000002,210.62819999999996" fill="#dc2626" opacity="0.9"/><title>U2.1 top</title></g>
<g><polygon points="214.2552,195.38819999999998 214.2552,202.2762 185.44920000000002,202.2762 185.44920000000002,195.3882" fill="#dc2626" opacity="0.9"/><title>U2.2 top</title></g>
<g><polygon points="214.2552,180.14819999999997 214.2552,187.0362 185.44920000000002,187.0362 185.44920000000002,180.1482" fill="#dc2626" opacity="0.9"/><title>U2.3 top</title></g>
<g><polygon points="214.2552,164.90819999999997 214.2552,171.79619999999997 185.44920000000002,171.79619999999997 185.44920000000002,164.90819999999997" fill="#dc2626" opacity="0.9"/><title>U2.4 top</title></g>
<g><polygon points="214.2552,149.66819999999998 214.2552,156.5562 185.44920000000002,156.5562 185.44920000000002,149.66819999999998" fill="#dc2626" opacity="0.9"/><title>U2.5 top</title></g>
<g><polygon points="214.2552,134.4282 214.2552,141.31619999999998 185.44920000000002,141.31619999999998 185.44920000000002,134.4282" fill="#dc2626" opacity="0.9"/><title>U2.6 top</title></g>
<g><polygon points="214.2552,119.1882 214.2552,126.07619999999997 185.44920000000002,126.0762 185.44920000000002,119.1882" fill="#dc2626" opacity="0.9"/><title>U2.7 top</title></g>
<g><polygon points="214.2552,103.9482 214.2552,110.83619999999998 185.44920000000002,110.83619999999998 185.44920000000002,103.9482" fill="#dc2626" opacity="0.9"/><title>U2.8 top</title></g>
<g><polygon points="100.24800000000003,210.62819999999996 100.24800000000003,217.51619999999997 71.44200000000002,217.51619999999997 71.44200000000002,210.62819999999996" fill="#dc2626" opacity="0.9"/><title>U2.16 top</title></g>
<g><polygon points="100.24800000000002,195.3882 100.24800000000002,202.2762 71.44200000000002,202.2762 71.44200000000002,195.3882" fill="#dc2626" opacity="0.9"/><title>U2.15 top</title></g>
<g><polygon points="100.24800000000002,180.1482 100.24800000000002,187.0362 71.44200000000002,187.0362 71.44200000000002,180.1482" fill="#dc2626" opacity="0.9"/><title>U2.14 top</title></g>
<g><polygon points="100.24800000000002,164.9082 100.24800000000002,171.7962 71.44200000000002,171.7962 71.44200000000002,164.9082" fill="#dc2626" opacity="0.9"/><title>U2.13 top</title></g>
<g><polygon points="100.24800000000002,149.66819999999998 100.24800000000002,156.5562 71.44200000000002,156.5562 71.44200000000002,149.66819999999998" fill="#dc2626" opacity="0.9"/><title>U2.12 top</title></g>
<g><polygon points="100.24800000000002,134.4282 100.24800000000002,141.31619999999998 71.44200000000002,141.31619999999998 71.44200000000002,134.4282" fill="#dc2626" opacity="0.9"/><title>U2.11 top</title></g>
<g><polygon points="100.24800000000002,119.1882 100.24800000000002,126.0762 71.44200000000002,126.0762 71.44200000000002,119.1882" fill="#dc2626" opacity="0.9"/><title>U2.10 top</title></g>
<g><polygon points="100.24800000000002,103.9482 100.24800000000002,110.83619999999998 71.44200000000002,110.83619999999998 71.44200000000002,103.9482" fill="#dc2626" opacity="0.9"/><title>U2.9 top</title></g>

</svg>