<svg xmlns="http://www.w3.org/2000/svg" width="172.3914" height="127.8288" viewBox="0 0 172.3914 127.8288">
<rect x="0" y="0" width="172.3914" height="127.8288" fill="#f8fafc"/>
<rect x="0.5" y="0.5" width="171.3914" height="126.8288" fill="#f8fafc" stroke="#cbd5e1" stroke-width="1"/>

<line x1="60.02399999999999" y1="63.9144" x2="30.288" y2="44.439600000000006" stroke="#ef4444" stroke-width="1" stroke-dasharray="4 3"><title>+3V3</title></line>
<line x1="60.02399999999999" y1="63.9144" x2="131.304" y2="63.9144" stroke="#ef4444" stroke-width="1" stroke-dasharray="4 3"><title>+3V3</title></line>
<line x1="60.02399999999999" y1="91.5144" x2="30.288" y2="72.99959999999999" stroke="#ef4444" stroke-width="1" stroke-dasharray="4 3"><title>VBUS</title></line>


<g>
  
  
  
  
  <circle cx="54.86279999999999" cy="24.915600000000005" r="0.7200000000000006" fill="none" stroke="#dc2626" stroke-width="0.7"/>
<circle cx="41.04359999999999" cy="37.662" r="2.998800000000003" fill="none" stroke="#dc2626" stroke-width="6"/>
<polygon points="117.86399999999999,24.9144 117.86399999999999,102.9144 75.86399999999999,102.9144 75.86399999999999,24.9144 117.86399999999999,24.9144" fill="none" stroke="#dc2626" stroke-width="0.7" stroke-linecap="round" stroke-linejoin="round"/>
<polyline points="114.52080000000001,24 114.52080000000001,103.8288" fill="none" stroke="#64748b" stroke-width="1.8288000000000002" stroke-linecap="round" stroke-linejoin="round"/>
<polyline points="114.52080000000001,103.8288 79.2072,103.8288" fill="none" stroke="#64748b" stroke-width="1.8288000000000002" stroke-linecap="round" stroke-linejoin="round"/>
<polyline points="79.2072,103.8288 79.2072,24" fill="none" stroke="#64748b" stroke-width="1.8288000000000002" stroke-linecap="round" stroke-linejoin="round"/>
<polyline points="79.2072,24 114.52080000000001,24" fill="none" stroke="#64748b" stroke-width="1.8288000000000002" stroke-linecap="round" stroke-linejoin="round"/>
  <text x="95.184" y="65.11439999999999" font-size="11" font-family="Arial" text-anchor="middle" fill="#dc2626">U5</text>
  <text x="95.184" y="50.714400000000005" font-size="8" font-family="Arial" text-anchor="middle" fill="#dc2626">r0 top</text>
</g>
<g>
  
  
  
  
  <circle cx="27.289199999999997" cy="33.399600000000014" r="0.7200000000000006" fill="none" stroke="#dc2626" stroke-width="0.7"/>
<polygon points="27.288,33.39840000000001 33.288,33.39840000000001 33.288,45.39840000000001 27.288,45.39840000000001 27.288,33.39840000000001" fill="none" stroke="#dc2626" stroke-width="0.7" stroke-linecap="round" stroke-linejoin="round"/>
<polyline points="36.257999999999996,30.74160000000001 36.257999999999996,36.741600000000005" fill="none" stroke="#64748b" stroke-width="1.8288000000000002" stroke-linecap="round" stroke-linejoin="round"/>
<polyline points="26.1216,28.912800000000008 34.430400000000006,28.912800000000008" fill="none" stroke="#64748b" stroke-width="1.8288000000000002" stroke-linecap="round" stroke-linejoin="round"/>
<polyline points="24.2928,36.741600000000005 24.2928,30.74160000000001" fill="none" stroke="#64748b" stroke-width="1.8288000000000002" stroke-linecap="round" stroke-linejoin="round"/>
<polyline points="24.318000000000005,48.05520000000001 24.318000000000005,42.05520000000001" fill="none" stroke="#64748b" stroke-width="1.8288000000000002" stroke-linecap="round" stroke-linejoin="round"/>
<polyline points="36.2832,42.05520000000001 36.2832,48.05520000000001" fill="none" stroke="#64748b" stroke-width="1.8288000000000002" stroke-linecap="round" stroke-linejoin="round"/>
<polyline points="34.455600000000004,49.884000000000015 26.145599999999998,49.884000000000015" fill="none" stroke="#64748b" stroke-width="1.8288000000000002" stroke-linecap="round" stroke-linejoin="round"/>
<polyline points="36.2832,48.05520000000001 34.4544,49.884000000000015" fill="none" stroke="#64748b" stroke-width="1.8288000000000002" stroke-linecap="round" stroke-linejoin="round"/>
<polyline points="26.145599999999998,49.884000000000015 24.316799999999997,48.05520000000001" fill="none" stroke="#64748b" stroke-width="1.8288000000000002" stroke-linecap="round" stroke-linejoin="round"/>
<polyline points="24.2928,30.74160000000001 26.1216,28.912800000000008" fill="none" stroke="#64748b" stroke-width="1.8288000000000002" stroke-linecap="round" stroke-linejoin="round"/>
<polyline points="34.430400000000006,28.912800000000008 36.25920000000001,30.74160000000001" fill="none" stroke="#64748b" stroke-width="1.8288000000000002" stroke-linecap="round" stroke-linejoin="round"/>
  <text x="30.288" y="40.59840000000001" font-size="11" font-family="Arial" text-anchor="middle" fill="#dc2626">C21</text>
  <text x="30.288" y="26.198400000000007" font-size="8" font-family="Arial" text-anchor="middle" fill="#dc2626">r270 top</text>
</g>
<g>
  
  
  
  
  <circle cx="27.289199999999997" cy="61.959599999999995" r="0.7200000000000013" fill="none" stroke="#dc2626" stroke-width="0.7"/>
<polygon points="27.288,61.9584 33.288,61.9584 33.288,73.9584 27.288,73.9584 27.288,61.9584" fill="none" stroke="#dc2626" stroke-width="0.7" stroke-linecap="round" stroke-linejoin="round"/>
<polyline points="36.257999999999996,59.30159999999999 36.257999999999996,65.3016" fill="none" stroke="#64748b" stroke-width="1.8288000000000002" stroke-linecap="round" stroke-linejoin="round"/>
<polyline points="26.1216,57.47279999999999 34.430400000000006,57.47279999999999" fill="none" stroke="#64748b" stroke-width="1.8288000000000002" stroke-linecap="round" stroke-linejoin="round"/>
<polyline points="24.2928,65.3016 24.2928,59.30159999999999" fill="none" stroke="#64748b" stroke-width="1.8288000000000002" stroke-linecap="round" stroke-linejoin="round"/>
<polyline points="24.318000000000005,76.6152 24.318000000000005,70.6152" fill="none" stroke="#64748b" stroke-width="1.8288000000000002" stroke-linecap="round" stroke-linejoin="round"/>
<polyline points="36.2832,70.6152 36.2832,76.6152" fill="none" stroke="#64748b" stroke-width="1.8288000000000002" stroke-linecap="round" stroke-linejoin="round"/>
<polyline points="34.455600000000004,78.444 26.145599999999998,78.444" fill="none" stroke="#64748b" stroke-width="1.8288000000000002" stroke-linecap="round" stroke-linejoin="round"/>
<polyline points="36.2832,76.6152 34.4544,78.444" fill="none" stroke="#64748b" stroke-width="1.8288000000000002" stroke-linecap="round" stroke-linejoin="round"/>
<polyline points="26.145599999999998,78.444 24.316799999999997,76.6152" fill="none" stroke="#64748b" stroke-width="1.8288000000000002" stroke-linecap="round" stroke-linejoin="round"/>
<polyline points="24.2928,59.30159999999999 26.1216,57.47279999999999" fill="none" stroke="#64748b" stroke-width="1.8288000000000002" stroke-linecap="round" stroke-linejoin="round"/>
<polyline points="34.430400000000006,57.47279999999999 36.25920000000001,59.30159999999999" fill="none" stroke="#64748b" stroke-width="1.8288000000000002" stroke-linecap="round" stroke-linejoin="round"/>
  <text x="30.288" y="69.1584" font-size="11" font-family="Arial" text-anchor="middle" fill="#dc2626">C20</text>
  <text x="30.288" y="54.7584" font-size="8" font-family="Arial" text-anchor="middle" fill="#dc2626">r270 top</text>
</g>
<g><polygon points="45.024,29.714400000000005 75.02399999999999,29.714400000000005 75.02399999999999,42.9144 45.024,42.9144" fill="#dc2626" opacity="0.9"/><title>U5.1 top</title></g>
<g><polygon points="45.024,57.314400000000006 75.02399999999999,57.314400000000006 75.02399999999999,70.5144 45.024,70.5144" fill="#dc2626" opacity="0.9"/><title>U5.2 top</title></g>
<g><polygon points="45.024,84.9144 75.02399999999999,84.9144 75.02399999999999,98.11439999999999 45.024,98.11439999999999" fill="#dc2626" opacity="0.9"/><title>U5.3 top</title></g>
<g><polygon points="117.26399999999998,42.314400000000006 145.344,42.314400000000006 145.344,85.5144 117.26399999999998,85.5144" fill="#dc2626" opacity="0.9"/><title>U5.4 top</title></g>
<g><polygon points="27.048000000000005,47.439600000000006 27.048000000000005,41.43960000000001 33.528000000000006,41.439600000000006 33.528000000000006,47.439600000000006" fill="#dc2626" opacity="0.9"/><title>C21.2 top</title></g>
<g><polygon points="27.047999999999995,37.35720000000001 27.047999999999995,31.357200000000013 33.52799999999999,31.357200000000013 33.52799999999999,37.357200000000006" fill="#dc2626" opacity="0.9"/><title>C21.1 top</title></g>
<g><polygon points="27.048000000000005,75.99959999999999 27.048000000000005,69.99959999999999 33.528000000000006,69.99959999999999 33.528000000000006,75.99959999999999" fill="#dc2626" opacity="0.9"/><title>C20.2 top</title></g>
<g><polygon points="27.047999999999995,65.91720000000001 27.047999999999995,59.9172 33.52799999999999,59.9172 33.52799999999999,65.91720000000001" fill="#dc2626" opacity="0.9"/><title>C20.1 top</title></g>

</svg>