<svg xmlns="http://www.w3.org/2000/svg" width="169.03140000000002" height="127.8288" viewBox="0 0 169.03140000000002 127.8288">
<rect x="0" y="0" width="169.03140000000002" height="127.8288" fill="#f8fafc"/>
<rect x="0.5" y="0.5" width="168.03140000000002" height="126.8288" fill="#f8fafc" stroke="#cbd5e1" stroke-width="1"/>

<line x1="109.9662" y1="63.9144" x2="41.0886" y2="63.9144" stroke="#ef4444" stroke-width="1" stroke-dasharray="4 3"><title>+1V8</title></line>
<line x1="138.7434" y1="75.43320000000001" x2="41.0886" y2="91.5144" stroke="#ef4444" stroke-width="1" stroke-dasharray="4 3"><title>VBUS</title></line>


<g>
  
  
  
  
  <circle cx="141.7422" cy="86.47320000000002" r="0.7200000000000006" fill="none" stroke="#dc2626" stroke-width="0.7"/>
<polygon points="141.7434,86.4744 135.7434,86.4744 135.7434,74.4744 141.7434,74.4744 141.7434,86.4744" fill="none" stroke="#dc2626" stroke-width="0.7" stroke-linecap="round" stroke-linejoin="round"/>
<polyline points="132.7734,89.1312 132.7734,83.1312" fill="none" stroke="#64748b" stroke-width="1.8288000000000002" stroke-linecap="round" stroke-linejoin="round"/>
<polyline points="142.90980000000002,90.96000000000001 134.601,90.96000000000001" fill="none" stroke="#64748b" stroke-width="1.8288000000000002" stroke-linecap="round" stroke-linejoin="round"/>
<polyline points="144.73860000000002,83.1312 144.73860000000002,89.1312" fill="none" stroke="#64748b" stroke-width="1.8288000000000002" stroke-linecap="round" stroke-linejoin="round"/>
<polyline points="144.71339999999998,71.81760000000001 144.71339999999998,77.81760000000001" fill="none" stroke="#64748b" stroke-width="1.8288000000000002" stroke-linecap="round" stroke-linejoin="round"/>
<polyline points="132.7482,77.81760000000001 132.7482,71.81760000000001" fill="none" stroke="#64748b" stroke-width="1.8288000000000002" stroke-linecap="round" stroke-linejoin="round"/>
<polyline points="134.5758,69.98880000000001 142.8858,69.98880000000001" fill="none" stroke="#64748b" stroke-width="1.8288000000000002" stroke-linecap="round" stroke-linejoin="round"/>
<polyline points="132.7482,71.81760000000001 134.577,69.98880000000001" fill="none" stroke="#64748b" stroke-width="1.8288000000000002" stroke-linecap="round" stroke-linejoin="round"/>
<polyline points="142.8858,69.98880000000001 144.7146,71.81760000000001" fill="none" stroke="#64748b" stroke-width="1.8288000000000002" stroke-linecap="round" stroke-linejoin="round"/>
<polyline points="144.73860000000002,89.1312 142.90980000000002,90.96000000000001" fill="none" stroke="#64748b" stroke-width="1.8288000000000002" stroke-linecap="round" stroke-linejoin="round"/>
<polyline points="134.601,90.96000000000001 132.7722,89.1312" fill="none" stroke="#64748b" stroke-width="1.8288000000000002" stroke-linecap="round" stroke-linejoin="round"/>
  <text x="138.7434" y="81.6744" font-size="11" font-family="Arial" text-anchor="middle" fill="#dc2626">C22</text>
  <text x="138.7434" y="67.27440000000001" font-size="8" font-family="Arial" text-anchor="middle" fill="#dc2626">r90 top</text>
</g>
<g>
  
  
  
  
  <circle cx="33.8274" cy="24.0132" r="2.4011999999999993" fill="none" stroke="#dc2626" stroke-width="0.7"/>
<circle cx="23.7114" cy="36.4824" r="2.998800000000003" fill="none" stroke="#dc2626" stroke-width="6"/>
<polygon points="53.627399999999994,24.0144 97.4274,24.0144 97.4274,103.81439999999999 53.627399999999994,103.81439999999999 53.627399999999994,24.0144" fill="none" stroke="#dc2626" stroke-width="0.7" stroke-linecap="round" stroke-linejoin="round"/>
<polyline points="93.1842,24 93.1842,103.8288" fill="none" stroke="#64748b" stroke-width="1.8288000000000002" stroke-linecap="round" stroke-linejoin="round"/>
<polyline points="93.1842,103.8288 57.870599999999996,103.8288" fill="none" stroke="#64748b" stroke-width="1.8288000000000002" stroke-linecap="round" stroke-linejoin="round"/>
<polyline points="57.870599999999996,103.8288 57.870599999999996,24" fill="none" stroke="#64748b" stroke-width="1.8288000000000002" stroke-linecap="round" stroke-linejoin="round"/>
<polyline points="57.870599999999996,24 93.1842,24" fill="none" stroke="#64748b" stroke-width="1.8288000000000002" stroke-linecap="round" stroke-linejoin="round"/>
  <text x="75.5274" y="65.11439999999999" font-size="11" font-family="Arial" text-anchor="middle" fill="#dc2626">U6</text>
  <text x="75.5274" y="50.714400000000005" font-size="8" font-family="Arial" text-anchor="middle" fill="#dc2626">r0 top</text>
</g>
<g><polygon points="141.9834,72.43320000000001 141.9834,78.43320000000001 135.5034,78.43320000000001 135.5034,72.43320000000001" fill="#dc2626" opacity="0.9"/><title>C22.2 top</title></g>
<g><polygon points="141.9834,82.5156 141.9834,88.5156 135.5034,88.5156 135.5034,82.5156" fill="#dc2626" opacity="0.9"/><title>C22.1 top</title></g>
<g><polygon points="27.048600000000004,30.4344 55.12859999999999,30.4344 55.12859999999999,42.1944 27.048600000000004,42.1944" fill="#dc2626" opacity="0.9"/><title>U6.1 top</title></g>
<g><polygon points="27.048600000000004,58.0344 55.12859999999999,58.0344 55.12859999999999,69.7944 27.048600000000004,69.7944" fill="#dc2626" opacity="0.9"/><title>U6.2 top</title></g>
<g><polygon points="27.048600000000004,85.6344 55.12859999999999,85.6344 55.12859999999999,97.39439999999999 27.048600000000004,97.39439999999999" fill="#dc2626" opacity="0.9"/><title>U6.3 top</title></g>
<g><polygon points="95.9262,42.314400000000006 124.00619999999998,42.314400000000006 124.00619999999998,85.5144 95.9262,85.5144" fill="#dc2626" opacity="0.9"/><title>U6.4 top</title></g>

</svg>