<svg xmlns="http://www.w3.org/2000/svg" width="317.9508" height="291.84000000000003" viewBox="0 0 317.9508 291.84000000000003">
<rect x="0" y="0" width="317.9508" height="291.84000000000003" fill="#f8fafc"/>
<rect x="0.5" y="0.5" width="316.9508" height="290.84000000000003" fill="#f8fafc" stroke="#cbd5e1" stroke-width="1"/>

<line x1="94.7388" y1="191.71200000000005" x2="126.31080000000004" y2="252.60000000000005" stroke="#ef4444" stroke-width="1" stroke-dasharray="4 3"><title>DIR</title></line>
<line x1="90.8388" y1="214.98000000000002" x2="126.31080000000004" y2="222.12" stroke="#ef4444" stroke-width="1" stroke-dasharray="4 3"><title>STEP</title></line>
<line x1="278.7108" y1="39.240000000000016" x2="64.50720000000001" y2="59.880000000000024" stroke="#ef4444" stroke-width="1" stroke-dasharray="4 3"><title>20V</title></line>


<g>
  
  
  
  
  <circle cx="96.8388" cy="188.11200000000002" r="0.720000000000006" fill="none" stroke="#dc2626" stroke-width="0.7"/>
<polygon points="96.84,188.11200000000002 96.84,195.31200000000004 84.84,195.31200000000004 84.84,188.11200000000002 96.84,188.11200000000002" fill="none" stroke="#dc2626" stroke-width="0.7" stroke-linecap="round" stroke-linejoin="round"/>
<polyline points="92.2776,185.47320000000002 98.0376,185.47320000000002 98.3976,185.47320000000002 99.59760000000001,186.6732 99.59760000000001,195.55320000000003 99.59760000000001,196.87320000000003 98.75760000000001,197.71320000000003 92.3976,197.71320000000003" fill="none" stroke="#64748b" stroke-width="1.7999999999999998" stroke-linecap="round" stroke-linejoin="round"/>
<polyline points="101.75760000000001,186.79200000000003 101.75760000000001,195.91320000000005" fill="none" stroke="#64748b" stroke-width="1.7999999999999998" stroke-linecap="round" stroke-linejoin="round"/>
<polyline points="79.92,196.63200000000003 79.92,187.512" fill="none" stroke="#64748b" stroke-width="1.7999999999999998" stroke-linecap="round" stroke-linejoin="round"/>
<polyline points="89.4,197.95200000000003 83.64000000000001,197.95200000000003 83.28000000000002,197.95200000000003 82.08,196.752 82.08,187.872 82.08,186.55200000000002 82.92,185.71200000000005 89.28000000000002,185.71200000000005" fill="none" stroke="#64748b" stroke-width="1.7999999999999998" stroke-linecap="round" stroke-linejoin="round"/>
  <text x="90.8388" y="192.912" font-size="11" font-family="Arial" text-anchor="middle" fill="#dc2626">D17</text>
  <text x="90.8388" y="178.512" font-size="8" font-family="Arial" text-anchor="middle" fill="#dc2626">r0 top</text>
</g>
<g>
  
  
  
  
  <circle cx="94.43880000000001" cy="217.08000000000004" r="0.720000000000006" fill="none" stroke="#dc2626" stroke-width="0.7"/>
<polygon points="94.43880000000001,217.0812 87.2388,217.0812 87.2388,205.0812 94.43880000000001,205.0812 94.43880000000001,217.0812" fill="none" stroke="#dc2626" stroke-width="0.7" stroke-linecap="round" stroke-linejoin="round"/>
<polyline points="97.0776,212.5188 97.0776,218.27880000000002 97.0776,218.63880000000003 95.8776,219.8388 86.9976,219.8388 85.67760000000001,219.8388 84.83760000000001,218.99880000000005 84.83760000000001,212.63880000000003" fill="none" stroke="#64748b" stroke-width="1.7999999999999998" stroke-linecap="round" stroke-linejoin="round"/>
<polyline points="95.75880000000001,221.99880000000005 86.63760000000002,221.99880000000005" fill="none" stroke="#64748b" stroke-width="1.7999999999999998" stroke-linecap="round" stroke-linejoin="round"/>
<polyline points="85.9188,200.16120000000004 95.03880000000001,200.16120000000004" fill="none" stroke="#64748b" stroke-width="1.7999999999999998" stroke-linecap="round" stroke-linejoin="round"/>
<polyline points="84.59880000000001,209.64120000000003 84.59880000000001,203.88120000000004 84.59880000000001,203.52120000000002 85.7988,202.32120000000003 94.67880000000001,202.32120000000003 95.9988,202.32120000000003 96.8388,203.16120000000004 96.8388,209.52120000000002" fill="none" stroke="#64748b" stroke-width="1.7999999999999998" stroke-linecap="round" stroke-linejoin="round"/>
  <text x="90.8388" y="212.28000000000003" font-size="11" font-family="Arial" text-anchor="middle" fill="#dc2626">D16</text>
  <text x="90.8388" y="197.88000000000002" font-size="8" font-family="Arial" text-anchor="middle" fill="#dc2626">r90 top</text>
</g>
<g>
  
  
  
  
  <polygon points="70.51080000000002,154.92000000000002 70.51080000000002,160.92000000000002 58.51080000000002,160.92000000000002 58.51080000000002,154.92000000000002 70.51080000000002,154.92000000000002" fill="none" stroke="#dc2626" stroke-width="0.7" stroke-linecap="round" stroke-linejoin="round"/>
<polyline points="67.22520000000003,151.93680000000003 75.84120000000001,151.93680000000003" fill="none" stroke="#64748b" stroke-width="1.8288000000000002" stroke-linecap="round" stroke-linejoin="round"/>
<polyline points="75.84120000000001,151.93680000000003 75.84120000000001,163.90320000000003" fill="none" stroke="#64748b" stroke-width="1.8288000000000002" stroke-linecap="round" stroke-linejoin="round"/>
<polyline points="75.84120000000001,163.90320000000003 67.22520000000003,163.90320000000003" fill="none" stroke="#64748b" stroke-width="1.8288000000000002" stroke-linecap="round" stroke-linejoin="round"/>
<polyline points="61.79640000000001,151.93680000000003 53.18040000000001,151.93680000000003" fill="none" stroke="#64748b" stroke-width="1.8288000000000002" stroke-linecap="round" stroke-linejoin="round"/>
<polyline points="53.18040000000001,151.93680000000003 53.18040000000001,163.90320000000003" fill="none" stroke="#64748b" stroke-width="1.8288000000000002" stroke-linecap="round" stroke-linejoin="round"/>
<polyline points="53.18040000000001,163.90320000000003 61.79640000000001,163.90320000000003" fill="none" stroke="#64748b" stroke-width="1.8288000000000002" stroke-linecap="round" stroke-linejoin="round"/>
<circle cx="70.50960000000002" cy="154.92120000000003" r="0.720000000000006" fill="none" stroke="#dc2626" stroke-width="0.7"/>
  <text x="64.51080000000002" y="159.12" font-size="11" font-family="Arial" text-anchor="middle" fill="#dc2626">R27</text>
  <text x="64.51080000000002" y="144.72000000000003" font-size="8" font-family="Arial" text-anchor="middle" fill="#dc2626">r0 top</text>
</g>
<g>
  
  
  
  
  <circle cx="232.9908" cy="48.38400000000002" r="12.192" fill="none" stroke="#64748b" stroke-width="3.048"/>
<circle cx="172.0308" cy="54.48000000000002" r="6.096" fill="none" stroke="#64748b" stroke-width="3.048"/>
<polygon points="111.0708,24.000000000000043 293.95079999999996,24 293.9508,267.84000000000003 111.07080000000002,267.84000000000003 111.0708,24.000000000000043" fill="none" stroke="#64748b" stroke-width="3.048" stroke-linecap="round" stroke-linejoin="round"/>
  <text x="202.51080000000002" y="147.12" font-size="11" font-family="Arial" text-anchor="middle" fill="#dc2626">DD1</text>
  <text x="202.51080000000002" y="132.72000000000003" font-size="8" font-family="Arial" text-anchor="middle" fill="#dc2626">r180 top</text>
</g>
<g>
  
  
  
  
  <circle cx="24.908400000000015" cy="48.31560000000003" r="0.720000000000006" fill="none" stroke="#dc2626" stroke-width="0.7"/>
<polygon points="104.10720000000003,131.52 24.908400000000015,131.52000000000004 24.908400000000015,68.16000000000003 40.74720000000002,52.320000000000036 88.26840000000001,52.320000000000014 104.1072,68.16000000000003 104.10720000000003,131.52" fill="none" stroke="#dc2626" stroke-width="0.7" stroke-linecap="round" stroke-linejoin="round"/>
<polyline points="55.63680000000002,132.18720000000002 24.00000000000002,132.4284" fill="none" stroke="#64748b" stroke-width="1.8288000000000002" stroke-linecap="round" stroke-linejoin="round"/>
<polyline points="24.00000000000002,132.4284 24,68.14560000000003" fill="none" stroke="#64748b" stroke-width="1.8288000000000002" stroke-linecap="round" stroke-linejoin="round"/>
<polyline points="24,68.14560000000003 40.73280000000001,51.41160000000002" fill="none" stroke="#64748b" stroke-width="1.8288000000000002" stroke-linecap="round" stroke-linejoin="round"/>
<polyline points="40.73280000000001,51.41160000000002 56.2776,51.57240000000003" fill="none" stroke="#64748b" stroke-width="1.8288000000000002" stroke-linecap="round" stroke-linejoin="round"/>
<polyline points="72.99960000000002,132.35400000000004 105.02160000000003,132.4344" fill="none" stroke="#64748b" stroke-width="1.8288000000000002" stroke-linecap="round" stroke-linejoin="round"/>
<polyline points="105.02160000000003,132.4344 105.0216,68.16000000000003" fill="none" stroke="#64748b" stroke-width="1.8288000000000002" stroke-linecap="round" stroke-linejoin="round"/>
<polyline points="105.0216,68.16000000000003 88.26840000000001,51.405600000000014" fill="none" stroke="#64748b" stroke-width="1.8288000000000002" stroke-linecap="round" stroke-linejoin="round"/>
<polyline points="88.26840000000001,51.405600000000014 72.73680000000002,51.40560000000002" fill="none" stroke="#64748b" stroke-width="1.8288000000000002" stroke-linecap="round" stroke-linejoin="round"/>
<polygon points="47.47920000000002,129.14400000000003 45.104400000000034,129.14400000000003 45.10440000000001,119.64000000000003 47.47920000000002,119.64000000000003 47.47920000000002,129.14400000000003" fill="none" stroke="#64748b" stroke-width="0.7" stroke-linecap="round" stroke-linejoin="round"/>
<polygon points="47.47920000000002,54.696000000000026 45.10440000000001,54.696000000000026 45.10440000000001,64.20000000000003 47.47920000000002,64.20000000000003 47.47920000000002,54.696000000000026" fill="none" stroke="#64748b" stroke-width="0.7" stroke-linecap="round" stroke-linejoin="round"/>
<polygon points="54.21120000000002,58.260000000000026 38.371200000000016,58.260000000000026 38.371200000000016,60.63600000000003 54.21120000000002,60.636000000000024 54.21120000000002,58.260000000000026" fill="none" stroke="#64748b" stroke-width="0.7" stroke-linecap="round" stroke-linejoin="round"/>
<polygon points="65.69640000000003,129.14400000000003 63.31920000000002,129.14400000000003 63.31920000000002,119.64000000000003 65.69640000000003,119.64000000000003 65.69640000000003,129.14400000000003" fill="none" stroke="#dc2626" stroke-width="0.7" stroke-linecap="round" stroke-linejoin="round"/>
<polygon points="65.69640000000001,54.69600000000002 63.3192,54.69600000000002 63.3192,64.20000000000002 65.69640000000001,64.20000000000002 65.69640000000001,54.69600000000002" fill="none" stroke="#dc2626" stroke-width="0.7" stroke-linecap="round" stroke-linejoin="round"/>
<polygon points="72.4272,58.20000000000002 56.58840000000002,58.20000000000002 56.58840000000002,60.57600000000002 72.4272,60.57600000000002 72.4272,58.20000000000002" fill="none" stroke="#dc2626" stroke-width="0.7" stroke-linecap="round" stroke-linejoin="round"/>
  <text x="64.51080000000002" y="93.12000000000002" font-size="11" font-family="Arial" text-anchor="middle" fill="#dc2626">C34</text>
  <text x="64.51080000000002" y="78.72000000000003" font-size="8" font-family="Arial" text-anchor="middle" fill="#dc2626">r270 top</text>
</g>
<g><polygon points="84.53880000000001,187.512 89.3388,187.512 89.3388,195.912 84.53880000000001,195.912" fill="#dc2626" opacity="0.9"/><title>D17.2 top</title></g>
<g><polygon points="92.3388,187.512 97.1388,187.512 97.1388,195.912 92.3388,195.912" fill="#dc2626" opacity="0.9"/><title>D17.1 top</title></g>
<g><polygon points="95.03880000000001,204.78000000000003 95.03880000000001,209.58000000000004 86.6388,209.58000000000004 86.6388,204.78000000000003" fill="#dc2626" opacity="0.9"/><title>D16.2 top</title></g>
<g><polygon points="95.03880000000001,212.58000000000004 95.03880000000001,217.38000000000002 86.6388,217.38000000000002 86.6388,212.58000000000004" fill="#dc2626" opacity="0.9"/><title>D16.1 top</title></g>
<g><polygon points="55.923000000000016,154.68000000000004 62.71140000000001,154.68000000000004 62.71140000000001,161.16000000000003 55.923000000000016,161.16000000000003" fill="#dc2626" opacity="0.9"/><title>R27.2 top</title></g>
<g><polygon points="66.31020000000002,154.68000000000004 73.09860000000002,154.68000000000004 73.09860000000002,161.16000000000003 66.31020000000002,161.16000000000003" fill="#dc2626" opacity="0.9"/><title>R27.1 top</title></g>
<g><polygon points="135.4548,48.38400000000002 117.1668,48.38400000000002 117.1668,30.09600000000001 135.4548,30.09600000000001" fill="#dc2626" opacity="0.9"/><circle cx="126.3108" cy="39.240000000000016" r="6" fill="#f8fafc" stroke="#334155" stroke-width="0.8"/><title>DD1.1 top</title></g>
<g><polygon points="135.4548,78.86400000000005 117.1668,78.86400000000005 117.1668,60.576000000000036 135.4548,60.576000000000036" fill="#dc2626" opacity="0.9"/><circle cx="126.3108" cy="69.72000000000004" r="6" fill="#f8fafc" stroke="#334155" stroke-width="0.8"/><title>DD1.2 top</title></g>
<g><polygon points="135.45480000000003,109.34400000000002 117.16680000000002,109.34400000000002 117.1668,91.05600000000004 135.4548,91.05600000000004" fill="#dc2626" opacity="0.9"/><circle cx="126.3108" cy="100.20000000000005" r="6" fill="#f8fafc" stroke="#334155" stroke-width="0.8"/><title>DD1.3 top</title></g>
<g><polygon points="135.45480000000003,139.82400000000004 117.16680000000002,139.82400000000004 117.16680000000002,121.53600000000004 135.45480000000003,121.53600000000004" fill="#dc2626" opacity="0.9"/><circle cx="126.31080000000003" cy="130.68000000000004" r="6" fill="#f8fafc" stroke="#334155" stroke-width="0.8"/><title>DD1.4 top</title></g>
<g><polygon points="135.45480000000003,170.30400000000003 117.16680000000002,170.30400000000003 117.16680000000002,152.01600000000002 135.45480000000003,152.01600000000002" fill="#dc2626" opacity="0.9"/><circle cx="126.31080000000003" cy="161.16000000000003" r="6" fill="#f8fafc" stroke="#334155" stroke-width="0.8"/><title>DD1.5 top</title></g>
<g><polygon points="135.45480000000003,200.78400000000005 117.16680000000004,200.78400000000005 117.16680000000002,182.49600000000004 135.45480000000003,182.49600000000004" fill="#dc2626" opacity="0.9"/><circle cx="126.31080000000004" cy="191.64000000000004" r="6" fill="#f8fafc" stroke="#334155" stroke-width="0.8"/><title>DD1.6 top</title></g>
<g><polygon points="135.45480000000003,231.264 117.16680000000004,231.264 117.16680000000004,212.976 135.45480000000003,212.976" fill="#dc2626" opacity="0.9"/><circle cx="126.31080000000004" cy="222.12" r="6" fill="#f8fafc" stroke="#334155" stroke-width="0.8"/><title>DD1.7 top</title></g>
<g><polygon points="135.45480000000003,261.744 117.16680000000004,261.744 117.16680000000004,243.45600000000005 135.45480000000003,243.45600000000005" fill="#dc2626" opacity="0.9"/><circle cx="126.31080000000004" cy="252.60000000000005" r="6" fill="#f8fafc" stroke="#334155" stroke-width="0.8"/><title>DD1.8 top</title></g>
<g><polygon points="290.9028,48.384 266.5188,48.38400000000002 266.5188,30.09600000000001 290.9028,30.09599999999999" fill="#dc2626" opacity="0.9"/><circle cx="278.7108" cy="39.240000000000016" r="6" fill="#f8fafc" stroke="#334155" stroke-width="0.8"/><title>DD1.9 top</title></g>
<g><polygon points="290.9028,78.86400000000002 266.5188,78.86400000000002 266.5188,60.57600000000001 290.9028,60.57600000000001" fill="#dc2626" opacity="0.9"/><circle cx="278.7108" cy="69.72000000000001" r="6" fill="#f8fafc" stroke="#334155" stroke-width="0.8"/><title>DD1.10 top</title></g>
<g><polygon points="290.9028,109.34400000000002 266.5188,109.34400000000002 266.5188,91.05600000000001 290.9028,91.05600000000001" fill="#dc2626" opacity="0.9"/><circle cx="278.7108" cy="100.20000000000002" r="6" fill="#f8fafc" stroke="#334155" stroke-width="0.8"/><title>DD1.11 top</title></g>
<g><polygon points="290.9028,139.824 266.5188,139.824 266.5188,121.53600000000003 290.9028,121.536" fill="#dc2626" opacity="0.9"/><circle cx="278.71080000000006" cy="130.68" r="6" fill="#f8fafc" stroke="#334155" stroke-width="0.8"/><title>DD1.12 top</title></g>
<g><polygon points="290.9028,170.304 266.5188,170.30400000000003 266.5188,152.01600000000002 290.9028,152.01600000000002" fill="#dc2626" opacity="0.9"/><circle cx="278.71080000000006" cy="161.16000000000003" r="6" fill="#f8fafc" stroke="#334155" stroke-width="0.8"/><title>DD1.13 top</title></g>
<g><polygon points="290.9028,200.784 266.5188,200.784 266.5188,182.49600000000004 290.9028,182.49600000000004" fill="#dc2626" opacity="0.9"/><circle cx="278.71080000000006" cy="191.64000000000001" r="6" fill="#f8fafc" stroke="#334155" stroke-width="0.8"/><title>DD1.14 top</title></g>
<g><polygon points="290.9028,231.264 266.5188,231.264 266.5188,212.976 290.9028,212.976" fill="#dc2626" opacity="0.9"/><circle cx="278.71080000000006" cy="222.12" r="6" fill="#f8fafc" stroke="#334155" stroke-width="0.8"/><title>DD1.15 top</title></g>
<g><polygon points="290.9028,261.744 266.5188,261.744 266.5188,243.45600000000005 290.9028,243.45600000000002" fill="#dc2626" opacity="0.9"/><circle cx="278.71080000000006" cy="252.60000000000005" r="6" fill="#f8fafc" stroke="#334155" stroke-width="0.8"/><title>DD1.16 top</title></g>
<g><polygon points="165.9348,48.38400000000002 147.6468,48.38400000000002 147.6468,30.09600000000001 165.9348,30.09600000000001" fill="#dc2626" opacity="0.9"/><circle cx="156.79080000000002" cy="39.240000000000016" r="6" fill="#f8fafc" stroke="#334155" stroke-width="0.8"/><title>DD1.17 top</title></g>
<g><polygon points="196.41479999999999,48.38400000000002 178.1268,48.38400000000002 178.1268,30.09600000000001 196.41479999999999,30.09600000000001" fill="#dc2626" opacity="0.9"/><circle cx="187.2708" cy="39.240000000000016" r="6" fill="#f8fafc" stroke="#334155" stroke-width="0.8"/><title>DD1.18 top</title></g>
<g><polygon points="57.30720000000001,80.88000000000002 57.30720000000001,38.880000000000024 71.7072,38.880000000000024 71.70720000000003,80.88000000000002" fill="#dc2626" opacity="0.9"/><title>C34.1 top</title></g>
<g><polygon points="57.30720000000003,144.96000000000004 57.30720000000003,102.96000000000002 71.70720000000003,102.96000000000002 71.70720000000003,144.96000000000004" fill="#dc2626" opacity="0.9"/><title>C34.2 top</title></g>

</svg>