<svg xmlns="http://www.w3.org/2000/svg" width="100.71000000000001" height="95.1264" viewBox="0 0 100.71000000000001 95.1264">
<rect x="0" y="0" width="100.71000000000001" height="95.1264" fill="#f8fafc"/>
<rect x="0.5" y="0.5" width="99.71000000000001" height="94.1264" fill="#f8fafc" stroke="#cbd5e1" stroke-width="1"/>

<line x1="65.4" y1="59.563199999999995" x2="35.148" y2="59.563199999999995" stroke="#ef4444" stroke-width="1" stroke-dasharray="4 3"><title>COMP_RC</title></line>


<g>
  
  
  
  
  <polygon points="57.75,35.5632 73.05000000000001,35.563199999999995 73.05000000000001,59.563199999999995 57.75,59.56320000000001 57.75,35.5632" fill="none" stroke="#dc2626" stroke-width="0.7" stroke-linecap="round" stroke-linejoin="round"/>
<polyline points="54.3948,53.2776 54.394800000000004,68.69640000000001" fill="none" stroke="#64748b" stroke-width="1.8288000000000002" stroke-linecap="round" stroke-linejoin="round"/>
<polyline points="54.394800000000004,68.69640000000001 76.40520000000001,68.69640000000001" fill="none" stroke="#64748b" stroke-width="1.8288000000000002" stroke-linecap="round" stroke-linejoin="round"/>
<polyline points="76.40520000000001,68.69640000000001 76.40520000000001,53.2776" fill="none" stroke="#64748b" stroke-width="1.8288000000000002" stroke-linecap="round" stroke-linejoin="round"/>
<polyline points="54.3948,41.8488 54.3948,26.43" fill="none" stroke="#64748b" stroke-width="1.8288000000000002" stroke-linecap="round" stroke-linejoin="round"/>
<polyline points="54.3948,26.43 76.4052,26.429999999999996" fill="none" stroke="#64748b" stroke-width="1.8288000000000002" stroke-linecap="round" stroke-linejoin="round"/>
<polyline points="76.4052,26.429999999999996 76.40520000000001,41.8488" fill="none" stroke="#64748b" stroke-width="1.8288000000000002" stroke-linecap="round" stroke-linejoin="round"/>
<circle cx="57.75" cy="35.5632" r="0.7199999999999993" fill="none" stroke="#dc2626" stroke-width="0.7"/>
  <text x="65.4" y="48.7632" font-size="11" font-family="Arial" text-anchor="middle" fill="#dc2626">R6</text>
  <text x="65.4" y="34.3632" font-size="8" font-family="Arial" text-anchor="middle" fill="#dc2626">r270 top</text>
</g>
<g>
  
  
  
  
  <circle cx="42.64920000000001" cy="59.563199999999995" r="0.7200000000000006" fill="none" stroke="#dc2626" stroke-width="0.7"/>
<polygon points="42.648,59.563199999999995 27.648000000000003,59.563199999999995 27.648000000000003,35.5632 42.648,35.5632 42.648,59.563199999999995" fill="none" stroke="#dc2626" stroke-width="0.7" stroke-linecap="round" stroke-linejoin="round"/>
<polyline points="24.304800000000004,25.8288 24.304800000000004,42.7488" fill="none" stroke="#64748b" stroke-width="1.8288000000000002" stroke-linecap="round" stroke-linejoin="round"/>
<polyline points="45.991200000000006,42.748799999999996 45.991200000000006,25.8288" fill="none" stroke="#64748b" stroke-width="1.8288000000000002" stroke-linecap="round" stroke-linejoin="round"/>
<polyline points="44.162400000000005,24 26.133600000000005,24" fill="none" stroke="#64748b" stroke-width="1.8288000000000002" stroke-linecap="round" stroke-linejoin="round"/>
<polyline points="24.304800000000004,69.2976 24.304800000000004,52.3776" fill="none" stroke="#64748b" stroke-width="1.8288000000000002" stroke-linecap="round" stroke-linejoin="round"/>
<polyline points="45.991200000000006,52.3776 45.991200000000006,69.2976" fill="none" stroke="#64748b" stroke-width="1.8288000000000002" stroke-linecap="round" stroke-linejoin="round"/>
<polyline points="44.162400000000005,71.1264 26.133600000000005,71.1264" fill="none" stroke="#64748b" stroke-width="1.8288000000000002" stroke-linecap="round" stroke-linejoin="round"/>
<polyline points="45.991200000000006,25.8288 44.162400000000005,24" fill="none" stroke="#64748b" stroke-width="1.8288000000000002" stroke-linecap="round" stroke-linejoin="round"/>
<polyline points="26.133600000000005,24 24.304800000000004,25.8288" fill="none" stroke="#64748b" stroke-width="1.8288000000000002" stroke-linecap="round" stroke-linejoin="round"/>
<polyline points="45.991200000000006,69.2976 44.162400000000005,71.1264" fill="none" stroke="#64748b" stroke-width="1.8288000000000002" stroke-linecap="round" stroke-linejoin="round"/>
<polyline points="26.133600000000005,71.1264 24.304800000000004,69.2976" fill="none" stroke="#64748b" stroke-width="1.8288000000000002" stroke-linecap="round" stroke-linejoin="round"/>
  <text x="35.148" y="48.7632" font-size="11" font-family="Arial" text-anchor="middle" fill="#dc2626">C6</text>
  <text x="35.148" y="34.3632" font-size="8" font-family="Arial" text-anchor="middle" fill="#dc2626">r90 top</text>
</g>
<g><polygon points="57.138000000000005,66.35820000000001 57.138,52.76820000000001 73.662,52.76819999999999 73.662,66.3582" fill="#dc2626" opacity="0.9"/><title>R6.2 top</title></g>
<g><polygon points="57.138,42.358200000000004 57.138,28.768200000000004 73.66199999999999,28.768199999999993 73.662,42.3582" fill="#dc2626" opacity="0.9"/><title>R6.1 top</title></g>
<g><polygon points="43.248000000000005,27.1032 43.248000000000005,44.0232 27.048000000000005,44.0232 27.048000000000002,27.1032" fill="#dc2626" opacity="0.9"/><title>C6.2 top</title></g>
<g><polygon points="43.248000000000005,51.1032 43.248000000000005,68.0232 27.048000000000005,68.0232 27.048000000000005,51.1032" fill="#dc2626" opacity="0.9"/><title>C6.1 top</title></g>

</svg>