<svg xmlns="http://www.w3.org/2000/svg" width="137.304" height="272.9874" viewBox="0 0 137.304 272.9874">
<rect x="0" y="0" width="137.304" height="272.9874" fill="#f8fafc"/>
<rect x="0.5" y="0.5" width="136.304" height="271.9874" fill="#f8fafc" stroke="#cbd5e1" stroke-width="1"/>

<line x1="71.25599999999999" y1="33.9366" x2="93.99719999999999" y2="71.4234" stroke="#ef4444" stroke-width="1" stroke-dasharray="4 3"><title>$1N15219</title></line>
<line x1="71.25599999999999" y1="56.7354" x2="30.288" y2="65.38499999999999" stroke="#ef4444" stroke-width="1" stroke-dasharray="4 3"><title>$1N15680</title></line>
<line x1="30.288" y1="65.38499999999999" x2="35.30399999999999" y2="92.3658" stroke="#ef4444" stroke-width="1" stroke-dasharray="4 3"><title>$1N15680</title></line>
<line x1="35.30399999999999" y1="92.3658" x2="49.079999999999984" y2="104.10059999999999" stroke="#ef4444" stroke-width="1" stroke-dasharray="4 3"><title>$1N15680</title></line>
<line x1="103.656" y1="56.7354" x2="99.456" y2="90.2274" stroke="#ef4444" stroke-width="1" stroke-dasharray="4 3"><title>$1N31277</title></line>
<line x1="99.456" y1="90.2274" x2="93.99719999999999" y2="109.01939999999999" stroke="#ef4444" stroke-width="1" stroke-dasharray="4 3"><title>$1N31277</title></line>
<line x1="93.99719999999999" y1="109.01939999999999" x2="99.456" y2="127.6554" stroke="#ef4444" stroke-width="1" stroke-dasharray="4 3"><title>$1N31277</title></line>
<line x1="99.456" y1="127.6554" x2="99.456" y2="151.1514" stroke="#ef4444" stroke-width="1" stroke-dasharray="4 3"><title>$1N31277</title></line>
<line x1="103.656" y1="45.33539999999999" x2="80.9148" y2="71.4234" stroke="#ef4444" stroke-width="1" stroke-dasharray="4 3"><title>$1N15272</title></line>
<line x1="80.9148" y1="71.4234" x2="91.60800000000003" y2="223.73940000000002" stroke="#ef4444" stroke-width="1" stroke-dasharray="4 3"><title>$1N15272</title></line>
<line x1="59.20800000000001" y1="223.73940000000002" x2="78.33600000000001" y2="172.21140000000003" stroke="#ef4444" stroke-width="1" stroke-dasharray="4 3"><title>$1N15676</title></line>
<line x1="78.33600000000001" y1="172.21140000000003" x2="96.576" y2="172.21140000000003" stroke="#ef4444" stroke-width="1" stroke-dasharray="4 3"><title>$1N15676</title></line>
<line x1="78.33600000000001" y1="172.21140000000003" x2="35.30399999999999" y2="102.75300000000001" stroke="#ef4444" stroke-width="1" stroke-dasharray="4 3"><title>$1N15676</title></line>
<line x1="35.30399999999999" y1="102.75300000000001" x2="49.079999999999984" y2="91.0182" stroke="#ef4444" stroke-width="1" stroke-dasharray="4 3"><title>$1N15676</title></line>
<line x1="49.079999999999984" y1="91.0182" x2="49.079999999999984" y2="72.1914" stroke="#ef4444" stroke-width="1" stroke-dasharray="4 3"><title>$1N15676</title></line>


<g>
  
  
  
  
  <circle cx="104.25599999999999" cy="27.935399999999994" r="0.7200000000000006" fill="none" stroke="#2563eb" stroke-width="0.7"/>
<circle cx="104.25599999999999" cy="33.9366" r="1.201200000000001" fill="none" stroke="#2563eb" stroke-width="2.4000000000000004"/>
<polygon points="77.856,27.935399999999994 77.856,62.7354 97.05599999999998,62.7354 97.05599999999998,27.935399999999994 77.856,27.935399999999994" fill="none" stroke="#2563eb" stroke-width="0.7" stroke-linecap="round" stroke-linejoin="round"/>
<polyline points="76.65599999999999,63.935399999999994 98.25599999999999,63.935399999999994" fill="none" stroke="#64748b" stroke-width="3.048" stroke-linecap="round" stroke-linejoin="round"/>
<polyline points="76.65599999999999,26.7342 98.25599999999999,26.7342" fill="none" stroke="#64748b" stroke-width="3.048" stroke-linecap="round" stroke-linejoin="round"/>
<circle cx="104.21999999999998" cy="25.5234" r="1.524" fill="none" stroke="#64748b" stroke-width="3.048"/>
  <text x="87.45599999999999" y="45.1674" font-size="11" font-family="Arial" text-anchor="middle" fill="#2563eb">U10</text>
  <text x="87.45599999999999" y="30.767399999999995" font-size="8" font-family="Arial" text-anchor="middle" fill="#2563eb">r0 bottom</text>
</g>
<g>
  
  
  
  
  <circle cx="75.45599999999999" cy="143.6502" r="0.7200000000000006" fill="none" stroke="#2563eb" stroke-width="0.7"/>
<polygon points="75.45599999999999,143.6514 75.45599999999999,158.6514 99.456,158.6514 99.456,143.6514 75.45599999999999,143.6514" fill="none" stroke="#2563eb" stroke-width="0.7" stroke-linecap="round" stroke-linejoin="round"/>
<polyline points="109.1904,161.9946 92.2704,161.9946" fill="none" stroke="#64748b" stroke-width="1.8288000000000002" stroke-linecap="round" stroke-linejoin="round"/>
<polyline points="92.2704,140.3082 109.1904,140.3082" fill="none" stroke="#64748b" stroke-width="1.8288000000000002" stroke-linecap="round" stroke-linejoin="round"/>
<polyline points="111.0192,142.137 111.0192,160.16580000000002" fill="none" stroke="#64748b" stroke-width="1.8288000000000002" stroke-linecap="round" stroke-linejoin="round"/>
<polyline points="65.7216,161.9946 82.64159999999998,161.9946" fill="none" stroke="#64748b" stroke-width="1.8288000000000002" stroke-linecap="round" stroke-linejoin="round"/>
<polyline points="82.64159999999998,140.3082 65.7216,140.3082" fill="none" stroke="#64748b" stroke-width="1.8288000000000002" stroke-linecap="round" stroke-linejoin="round"/>
<polyline points="63.89279999999999,142.137 63.89279999999999,160.16580000000002" fill="none" stroke="#64748b" stroke-width="1.8288000000000002" stroke-linecap="round" stroke-linejoin="round"/>
<polyline points="109.1904,140.3082 111.0192,142.137" fill="none" stroke="#64748b" stroke-width="1.8288000000000002" stroke-linecap="round" stroke-linejoin="round"/>
<polyline points="111.0192,160.16580000000002 109.1904,161.9946" fill="none" stroke="#64748b" stroke-width="1.8288000000000002" stroke-linecap="round" stroke-linejoin="round"/>
<polyline points="65.7216,140.3082 63.89279999999999,142.137" fill="none" stroke="#64748b" stroke-width="1.8288000000000002" stroke-linecap="round" stroke-linejoin="round"/>
<polyline points="63.89279999999999,160.16580000000002 65.7216,161.9946" fill="none" stroke="#64748b" stroke-width="1.8288000000000002" stroke-linecap="round" stroke-linejoin="round"/>
  <text x="87.45599999999999" y="152.3514" font-size="11" font-family="Arial" text-anchor="middle" fill="#2563eb">C35</text>
  <text x="87.45599999999999" y="137.9514" font-size="8" font-family="Arial" text-anchor="middle" fill="#2563eb">r0 bottom</text>
</g>
<g>
  
  
  
  
  <circle cx="75.45599999999999" cy="120.1542" r="0.7200000000000006" fill="none" stroke="#2563eb" stroke-width="0.7"/>
<polygon points="75.45599999999999,120.1554 75.45599999999999,135.1554 99.456,135.1554 99.456,120.1554 75.45599999999999,120.1554" fill="none" stroke="#2563eb" stroke-width="0.7" stroke-linecap="round" stroke-linejoin="round"/>
<polyline points="109.1904,138.4986 92.2704,138.4986" fill="none" stroke="#64748b" stroke-width="1.8288000000000002" stroke-linecap="round" stroke-linejoin="round"/>
<polyline points="92.2704,116.81219999999999 109.1904,116.81219999999999" fill="none" stroke="#64748b" stroke-width="1.8288000000000002" stroke-linecap="round" stroke-linejoin="round"/>
<polyline points="111.0192,118.64099999999999 111.0192,136.6698" fill="none" stroke="#64748b" stroke-width="1.8288000000000002" stroke-linecap="round" stroke-linejoin="round"/>
<polyline points="65.7216,138.4986 82.64159999999998,138.4986" fill="none" stroke="#64748b" stroke-width="1.8288000000000002" stroke-linecap="round" stroke-linejoin="round"/>
<polyline points="82.64159999999998,116.81219999999999 65.7216,116.81219999999999" fill="none" stroke="#64748b" stroke-width="1.8288000000000002" stroke-linecap="round" stroke-linejoin="round"/>
<polyline points="63.89279999999999,118.64099999999999 63.89279999999999,136.6698" fill="none" stroke="#64748b" stroke-width="1.8288000000000002" stroke-linecap="round" stroke-linejoin="round"/>
<polyline points="109.1904,116.81219999999999 111.0192,118.64099999999999" fill="none" stroke="#64748b" stroke-width="1.8288000000000002" stroke-linecap="round" stroke-linejoin="round"/>
<polyline points="111.0192,136.6698 109.1904,138.4986" fill="none" stroke="#64748b" stroke-width="1.8288000000000002" stroke-linecap="round" stroke-linejoin="round"/>
<polyline points="65.7216,116.81219999999999 63.89279999999999,118.64099999999999" fill="none" stroke="#64748b" stroke-width="1.8288000000000002" stroke-linecap="round" stroke-linejoin="round"/>
<polyline points="63.89279999999999,136.6698 65.7216,138.4986" fill="none" stroke="#64748b" stroke-width="1.8288000000000002" stroke-linecap="round" stroke-linejoin="round"/>
  <text x="87.45599999999999" y="128.8554" font-size="11" font-family="Arial" text-anchor="middle" fill="#2563eb">C36</text>
  <text x="87.45599999999999" y="114.4554" font-size="8" font-family="Arial" text-anchor="middle" fill="#2563eb">r0 bottom</text>
</g>
<g>
  
  
  
  
  <polygon points="93.45599999999999,74.4234 93.45599999999999,68.4234 81.45599999999999,68.4234 81.45599999999999,74.4234 93.45599999999999,74.4234" fill="none" stroke="#2563eb" stroke-width="0.7" stroke-linecap="round" stroke-linejoin="round"/>
<polyline points="75.26039999999999,65.44019999999999 84.74159999999999,65.44019999999999" fill="none" stroke="#64748b" stroke-width="1.8288000000000002" stroke-linecap="round" stroke-linejoin="round"/>
<polyline points="84.7416,77.4066 75.26039999999999,77.4066" fill="none" stroke="#64748b" stroke-width="1.8288000000000002" stroke-linecap="round" stroke-linejoin="round"/>
<polyline points="73.43159999999999,75.5778 73.43159999999999,67.26899999999999" fill="none" stroke="#64748b" stroke-width="1.8288000000000002" stroke-linecap="round" stroke-linejoin="round"/>
<polyline points="99.6516,65.44019999999999 90.17039999999999,65.44019999999999" fill="none" stroke="#64748b" stroke-width="1.8288000000000002" stroke-linecap="round" stroke-linejoin="round"/>
<polyline points="90.1704,77.4066 99.6516,77.4066" fill="none" stroke="#64748b" stroke-width="1.8288000000000002" stroke-linecap="round" stroke-linejoin="round"/>
<polyline points="101.4804,75.5778 101.4804,67.26899999999999" fill="none" stroke="#64748b" stroke-width="1.8288000000000002" stroke-linecap="round" stroke-linejoin="round"/>
<polyline points="75.26039999999999,77.4066 73.43159999999999,75.5778" fill="none" stroke="#64748b" stroke-width="1.8288000000000002" stroke-linecap="round" stroke-linejoin="round"/>
<polyline points="73.43159999999999,67.26899999999999 75.26039999999999,65.44019999999999" fill="none" stroke="#64748b" stroke-width="1.8288000000000002" stroke-linecap="round" stroke-linejoin="round"/>
<polyline points="99.6516,77.4066 101.4804,75.5778" fill="none" stroke="#64748b" stroke-width="1.8288000000000002" stroke-linecap="round" stroke-linejoin="round"/>
<polyline points="101.4804,67.26899999999999 99.6516,65.44019999999999" fill="none" stroke="#64748b" stroke-width="1.8288000000000002" stroke-linecap="round" stroke-linejoin="round"/>
<circle cx="93.45599999999999" cy="74.4234" r="0.7200000000000006" fill="none" stroke="#2563eb" stroke-width="0.7"/>
  <text x="87.45599999999999" y="72.6234" font-size="11" font-family="Arial" text-anchor="middle" fill="#2563eb">C37</text>
  <text x="87.45599999999999" y="58.2234" font-size="8" font-family="Arial" text-anchor="middle" fill="#2563eb">r180 bottom</text>
</g>
<g>
  
  
  
  
  <circle cx="51.408000000000015" cy="199.73940000000002" r="0.7200000000000006" fill="none" stroke="#2563eb" stroke-width="0.7"/>
<polygon points="51.408000000000015,247.73940000000002 99.40800000000003,247.73940000000002 99.40800000000003,199.73940000000002 51.408000000000015,199.73940000000002 51.408000000000015,247.73940000000002" fill="none" stroke="#2563eb" stroke-width="0.7" stroke-linecap="round" stroke-linejoin="round"/>
<polyline points="51.408000000000015,198.5394 99.40800000000003,198.5394" fill="none" stroke="#64748b" stroke-width="3.048" stroke-linecap="round" stroke-linejoin="round"/>
<polyline points="51.408000000000015,248.93939999999998 99.40800000000003,248.93939999999998" fill="none" stroke="#64748b" stroke-width="3.048" stroke-linecap="round" stroke-linejoin="round"/>
  <text x="75.40800000000002" y="224.93939999999998" font-size="11" font-family="Arial" text-anchor="middle" fill="#2563eb">U11</text>
  <text x="75.40800000000002" y="210.5394" font-size="8" font-family="Arial" text-anchor="middle" fill="#2563eb">r0 bottom</text>
</g>
<g>
  
  
  
  
  <polygon points="33.288,54.1914 27.288,54.1914 27.288,66.1914 33.288,66.1914 33.288,54.1914" fill="none" stroke="#2563eb" stroke-width="0.7" stroke-linecap="round" stroke-linejoin="round"/>
<polyline points="36.27119999999999,57.477 36.27119999999999,48.861" fill="none" stroke="#64748b" stroke-width="1.8288000000000002" stroke-linecap="round" stroke-linejoin="round"/>
<polyline points="36.27119999999999,48.861 24.304800000000004,48.861" fill="none" stroke="#64748b" stroke-width="1.8288000000000002" stroke-linecap="round" stroke-linejoin="round"/>
<polyline points="24.304800000000004,48.861 24.304800000000004,57.477" fill="none" stroke="#64748b" stroke-width="1.8288000000000002" stroke-linecap="round" stroke-linejoin="round"/>
<polyline points="36.27119999999999,62.9058 36.27119999999999,71.5218" fill="none" stroke="#64748b" stroke-width="1.8288000000000002" stroke-linecap="round" stroke-linejoin="round"/>
<polyline points="36.27119999999999,71.5218 24.304800000000004,71.5218" fill="none" stroke="#64748b" stroke-width="1.8288000000000002" stroke-linecap="round" stroke-linejoin="round"/>
<polyline points="24.304800000000004,71.5218 24.304800000000004,62.9058" fill="none" stroke="#64748b" stroke-width="1.8288000000000002" stroke-linecap="round" stroke-linejoin="round"/>
<circle cx="33.2868" cy="54.1926" r="0.7200000000000006" fill="none" stroke="#2563eb" stroke-width="0.7"/>
  <text x="30.288" y="61.3914" font-size="11" font-family="Arial" text-anchor="middle" fill="#2563eb">R32</text>
  <text x="30.288" y="46.9914" font-size="8" font-family="Arial" text-anchor="middle" fill="#2563eb">r90 bottom</text>
</g>
<g>
  
  
  
  
  <polygon points="38.30399999999999,91.5594 32.30399999999999,91.5594 32.30399999999999,103.55940000000001 38.30399999999999,103.55940000000001 38.30399999999999,91.5594" fill="none" stroke="#2563eb" stroke-width="0.7" stroke-linecap="round" stroke-linejoin="round"/>
<polyline points="41.28719999999999,94.845 41.287199999999984,86.22900000000001" fill="none" stroke="#64748b" stroke-width="1.8288000000000002" stroke-linecap="round" stroke-linejoin="round"/>
<polyline points="41.287199999999984,86.22900000000001 29.320799999999995,86.22900000000001" fill="none" stroke="#64748b" stroke-width="1.8288000000000002" stroke-linecap="round" stroke-linejoin="round"/>
<polyline points="29.320799999999995,86.22900000000001 29.320799999999995,94.845" fill="none" stroke="#64748b" stroke-width="1.8288000000000002" stroke-linecap="round" stroke-linejoin="round"/>
<polyline points="41.28719999999999,100.2738 41.28719999999999,108.8898" fill="none" stroke="#64748b" stroke-width="1.8288000000000002" stroke-linecap="round" stroke-linejoin="round"/>
<polyline points="41.28719999999999,108.8898 29.320799999999995,108.8898" fill="none" stroke="#64748b" stroke-width="1.8288000000000002" stroke-linecap="round" stroke-linejoin="round"/>
<polyline points="29.320799999999995,108.8898 29.320799999999995,100.2738" fill="none" stroke="#64748b" stroke-width="1.8288000000000002" stroke-linecap="round" stroke-linejoin="round"/>
<circle cx="38.30279999999999" cy="91.5606" r="0.7199999999999953" fill="none" stroke="#2563eb" stroke-width="0.7"/>
  <text x="35.30399999999999" y="98.75939999999999" font-size="11" font-family="Arial" text-anchor="middle" fill="#2563eb">R33</text>
  <text x="35.30399999999999" y="84.3594" font-size="8" font-family="Arial" text-anchor="middle" fill="#2563eb">r90 bottom</text>
</g>
<g>
  
  
  
  
  <polygon points="46.079999999999984,103.55940000000001 52.079999999999984,103.55940000000001 52.079999999999984,91.5594 46.079999999999984,91.5594 46.079999999999984,103.55940000000001" fill="none" stroke="#2563eb" stroke-width="0.7" stroke-linecap="round" stroke-linejoin="round"/>
<polyline points="55.06319999999998,85.3638 55.06319999999998,94.845" fill="none" stroke="#64748b" stroke-width="1.8288000000000002" stroke-linecap="round" stroke-linejoin="round"/>
<polyline points="43.09679999999999,94.845 43.09679999999999,85.3638" fill="none" stroke="#64748b" stroke-width="1.8288000000000002" stroke-linecap="round" stroke-linejoin="round"/>
<polyline points="44.92559999999999,83.535 53.23439999999998,83.535" fill="none" stroke="#64748b" stroke-width="1.8288000000000002" stroke-linecap="round" stroke-linejoin="round"/>
<polyline points="55.063199999999995,109.755 55.063199999999995,100.2738" fill="none" stroke="#64748b" stroke-width="1.8288000000000002" stroke-linecap="round" stroke-linejoin="round"/>
<polyline points="43.09679999999999,100.2738 43.09679999999999,109.755" fill="none" stroke="#64748b" stroke-width="1.8288000000000002" stroke-linecap="round" stroke-linejoin="round"/>
<polyline points="44.92559999999999,111.5838 53.234399999999994,111.5838" fill="none" stroke="#64748b" stroke-width="1.8288000000000002" stroke-linecap="round" stroke-linejoin="round"/>
<polyline points="43.09679999999999,85.3638 44.92559999999999,83.535" fill="none" stroke="#64748b" stroke-width="1.8288000000000002" stroke-linecap="round" stroke-linejoin="round"/>
<polyline points="53.23439999999998,83.535 55.06319999999998,85.3638" fill="none" stroke="#64748b" stroke-width="1.8288000000000002" stroke-linecap="round" stroke-linejoin="round"/>
<polyline points="43.09679999999999,109.755 44.92559999999999,111.5838" fill="none" stroke="#64748b" stroke-width="1.8288000000000002" stroke-linecap="round" stroke-linejoin="round"/>
<polyline points="53.234399999999994,111.5838 55.063199999999995,109.755" fill="none" stroke="#64748b" stroke-width="1.8288000000000002" stroke-linecap="round" stroke-linejoin="round"/>
<circle cx="46.079999999999984" cy="103.55940000000001" r="0.7199999999999953" fill="none" stroke="#2563eb" stroke-width="0.7"/>
  <text x="49.079999999999984" y="98.75939999999999" font-size="11" font-family="Arial" text-anchor="middle" fill="#2563eb">C39</text>
  <text x="49.079999999999984" y="84.3594" font-size="8" font-family="Arial" text-anchor="middle" fill="#2563eb">r270 bottom</text>
</g>
<g>
  
  
  
  
  <polygon points="93.45599999999999,112.01939999999999 93.45599999999999,106.01939999999999 81.45599999999999,106.01939999999999 81.45599999999999,112.01939999999999 93.45599999999999,112.01939999999999" fill="none" stroke="#2563eb" stroke-width="0.7" stroke-linecap="round" stroke-linejoin="round"/>
<polyline points="75.26039999999999,103.0362 84.74159999999999,103.0362" fill="none" stroke="#64748b" stroke-width="1.8288000000000002" stroke-linecap="round" stroke-linejoin="round"/>
<polyline points="84.7416,115.00259999999999 75.26039999999999,115.00259999999999" fill="none" stroke="#64748b" stroke-width="1.8288000000000002" stroke-linecap="round" stroke-linejoin="round"/>
<polyline points="73.43159999999999,113.1738 73.43159999999999,104.865" fill="none" stroke="#64748b" stroke-width="1.8288000000000002" stroke-linecap="round" stroke-linejoin="round"/>
<polyline points="99.6516,103.0362 90.17039999999999,103.0362" fill="none" stroke="#64748b" stroke-width="1.8288000000000002" stroke-linecap="round" stroke-linejoin="round"/>
<polyline points="90.1704,115.00259999999999 99.6516,115.00259999999999" fill="none" stroke="#64748b" stroke-width="1.8288000000000002" stroke-linecap="round" stroke-linejoin="round"/>
<polyline points="101.4804,113.17379999999999 101.4804,104.865" fill="none" stroke="#64748b" stroke-width="1.8288000000000002" stroke-linecap="round" stroke-linejoin="round"/>
<polyline points="75.26039999999999,115.00259999999999 73.43159999999999,113.1738" fill="none" stroke="#64748b" stroke-width="1.8288000000000002" stroke-linecap="round" stroke-linejoin="round"/>
<polyline points="73.43159999999999,104.865 75.26039999999999,103.0362" fill="none" stroke="#64748b" stroke-width="1.8288000000000002" stroke-linecap="round" stroke-linejoin="round"/>
<polyline points="99.6516,115.00259999999999 101.4804,113.17379999999999" fill="none" stroke="#64748b" stroke-width="1.8288000000000002" stroke-linecap="round" stroke-linejoin="round"/>
<polyline points="101.4804,104.865 99.6516,103.0362" fill="none" stroke="#64748b" stroke-width="1.8288000000000002" stroke-linecap="round" stroke-linejoin="round"/>
<circle cx="93.45599999999999" cy="112.01939999999999" r="0.7200000000000006" fill="none" stroke="#2563eb" stroke-width="0.7"/>
  <text x="87.45599999999999" y="110.21940000000001" font-size="11" font-family="Arial" text-anchor="middle" fill="#2563eb">C40</text>
  <text x="87.45599999999999" y="95.8194" font-size="8" font-family="Arial" text-anchor="middle" fill="#2563eb">r180 bottom</text>
</g>
<g>
  
  
  
  
  <polygon points="56.72999999999999,48.1914 41.429999999999986,48.1914 41.42999999999999,72.1914 56.72999999999999,72.1914 56.72999999999999,48.1914" fill="none" stroke="#2563eb" stroke-width="0.7" stroke-linecap="round" stroke-linejoin="round"/>
<polyline points="60.08519999999999,65.9058 60.08519999999999,81.3246" fill="none" stroke="#64748b" stroke-width="1.8288000000000002" stroke-linecap="round" stroke-linejoin="round"/>
<polyline points="60.08519999999999,81.3246 38.074799999999996,81.3246" fill="none" stroke="#64748b" stroke-width="1.8288000000000002" stroke-linecap="round" stroke-linejoin="round"/>
<polyline points="38.074799999999996,81.3246 38.074799999999996,65.9058" fill="none" stroke="#64748b" stroke-width="1.8288000000000002" stroke-linecap="round" stroke-linejoin="round"/>
<polyline points="60.08519999999999,54.477 60.08519999999999,39.05819999999999" fill="none" stroke="#64748b" stroke-width="1.8288000000000002" stroke-linecap="round" stroke-linejoin="round"/>
<polyline points="60.08519999999999,39.05819999999999 38.07479999999998,39.05819999999999" fill="none" stroke="#64748b" stroke-width="1.8288000000000002" stroke-linecap="round" stroke-linejoin="round"/>
<polyline points="38.07479999999998,39.05819999999999 38.074799999999996,54.477" fill="none" stroke="#64748b" stroke-width="1.8288000000000002" stroke-linecap="round" stroke-linejoin="round"/>
<circle cx="56.72999999999999" cy="48.1914" r="0.7200000000000006" fill="none" stroke="#2563eb" stroke-width="0.7"/>
  <text x="49.079999999999984" y="61.3914" font-size="11" font-family="Arial" text-anchor="middle" fill="#2563eb">R34</text>
  <text x="49.079999999999984" y="46.9914" font-size="8" font-family="Arial" text-anchor="middle" fill="#2563eb">r90 bottom</text>
</g>
<g>
  
  
  
  
  <polygon points="91.77600000000001,190.21140000000003 101.376,190.21140000000003 101.376,171.0126 91.77600000000001,171.01260000000002 91.77600000000001,190.21140000000003" fill="none" stroke="#2563eb" stroke-width="0.7" stroke-linecap="round" stroke-linejoin="round"/>
<polyline points="88.06080000000001,183.9738 88.06080000000001,193.57379999999998" fill="none" stroke="#64748b" stroke-width="3.048" stroke-linecap="round" stroke-linejoin="round"/>
<polyline points="88.05480000000001,177.249 88.05480000000001,167.649" fill="none" stroke="#64748b" stroke-width="3.048" stroke-linecap="round" stroke-linejoin="round"/>
<polyline points="105.09720000000002,183.9738 105.09720000000002,193.57379999999998" fill="none" stroke="#64748b" stroke-width="3.048" stroke-linecap="round" stroke-linejoin="round"/>
<polyline points="105.0912,177.249 105.0912,167.649" fill="none" stroke="#64748b" stroke-width="3.048" stroke-linecap="round" stroke-linejoin="round"/>
<polyline points="91.7784,197.2914 101.37960000000001,197.2914" fill="none" stroke="#64748b" stroke-width="3.048" stroke-linecap="round" stroke-linejoin="round"/>
<polyline points="101.37240000000001,163.9314 91.7724,163.9314" fill="none" stroke="#64748b" stroke-width="3.048" stroke-linecap="round" stroke-linejoin="round"/>
<polyline points="105.0912,167.6502 101.37240000000001,163.9314" fill="none" stroke="#64748b" stroke-width="3.048" stroke-linecap="round" stroke-linejoin="round"/>
<polyline points="91.77360000000002,163.9314 88.05480000000001,167.6502" fill="none" stroke="#64748b" stroke-width="3.048" stroke-linecap="round" stroke-linejoin="round"/>
<polyline points="88.06080000000001,193.57379999999998 91.7784,197.2914" fill="none" stroke="#64748b" stroke-width="3.048" stroke-linecap="round" stroke-linejoin="round"/>
<polyline points="101.37840000000003,197.2914 105.09720000000002,193.57379999999998" fill="none" stroke="#64748b" stroke-width="3.048" stroke-linecap="round" stroke-linejoin="round"/>
<circle cx="91.77480000000001" cy="190.2138" r="0.720000000000006" fill="none" stroke="#2563eb" stroke-width="0.7"/>
  <text x="96.57600000000002" y="181.8114" font-size="11" font-family="Arial" text-anchor="middle" fill="#2563eb">C42</text>
  <text x="96.57600000000002" y="167.41140000000001" font-size="8" font-family="Arial" text-anchor="middle" fill="#2563eb">r270 bottom</text>
</g>
<g>
  
  
  
  
  <polygon points="73.53600000000003,190.21140000000003 83.13600000000002,190.21140000000003 83.13600000000001,171.0126 73.53600000000002,171.01260000000002 73.53600000000003,190.21140000000003" fill="none" stroke="#2563eb" stroke-width="0.7" stroke-linecap="round" stroke-linejoin="round"/>
<polyline points="69.82080000000002,183.9738 69.82080000000002,193.57379999999998" fill="none" stroke="#64748b" stroke-width="3.048" stroke-linecap="round" stroke-linejoin="round"/>
<polyline points="69.81480000000002,177.249 69.81480000000002,167.649" fill="none" stroke="#64748b" stroke-width="3.048" stroke-linecap="round" stroke-linejoin="round"/>
<polyline points="86.8572,183.9738 86.8572,193.57379999999998" fill="none" stroke="#64748b" stroke-width="3.048" stroke-linecap="round" stroke-linejoin="round"/>
<polyline points="86.85120000000002,177.249 86.85120000000002,167.649" fill="none" stroke="#64748b" stroke-width="3.048" stroke-linecap="round" stroke-linejoin="round"/>
<polyline points="73.53840000000002,197.2914 83.13960000000003,197.2914" fill="none" stroke="#64748b" stroke-width="3.048" stroke-linecap="round" stroke-linejoin="round"/>
<polyline points="83.13240000000002,163.9314 73.53240000000001,163.9314" fill="none" stroke="#64748b" stroke-width="3.048" stroke-linecap="round" stroke-linejoin="round"/>
<polyline points="86.85120000000002,167.6502 83.13240000000002,163.9314" fill="none" stroke="#64748b" stroke-width="3.048" stroke-linecap="round" stroke-linejoin="round"/>
<polyline points="73.5336,163.9314 69.81480000000002,167.6502" fill="none" stroke="#64748b" stroke-width="3.048" stroke-linecap="round" stroke-linejoin="round"/>
<polyline points="69.82080000000002,193.57379999999998 73.53840000000002,197.2914" fill="none" stroke="#64748b" stroke-width="3.048" stroke-linecap="round" stroke-linejoin="round"/>
<polyline points="83.13840000000002,197.2914 86.8572,193.57379999999998" fill="none" stroke="#64748b" stroke-width="3.048" stroke-linecap="round" stroke-linejoin="round"/>
<circle cx="73.53480000000002" cy="190.2138" r="0.720000000000006" fill="none" stroke="#2563eb" stroke-width="0.7"/>
  <text x="78.33600000000001" y="181.8114" font-size="11" font-family="Arial" text-anchor="middle" fill="#2563eb">C43</text>
  <text x="78.33600000000001" y="167.41140000000001" font-size="8" font-family="Arial" text-anchor="middle" fill="#2563eb">r270 bottom</text>
</g>
<g>
  
  
  
  
  <polygon points="99.456,97.8774 99.45599999999999,82.57739999999998 75.45599999999999,82.5774 75.45599999999999,97.8774 99.456,97.8774" fill="none" stroke="#2563eb" stroke-width="0.7" stroke-linecap="round" stroke-linejoin="round"/>
<polyline points="81.7416,101.23259999999999 66.3228,101.23259999999999" fill="none" stroke="#64748b" stroke-width="1.8288000000000002" stroke-linecap="round" stroke-linejoin="round"/>
<polyline points="66.3228,101.23259999999999 66.3228,79.2222" fill="none" stroke="#64748b" stroke-width="1.8288000000000002" stroke-linecap="round" stroke-linejoin="round"/>
<polyline points="66.3228,79.2222 81.74159999999999,79.2222" fill="none" stroke="#64748b" stroke-width="1.8288000000000002" stroke-linecap="round" stroke-linejoin="round"/>
<polyline points="93.1704,101.23259999999999 108.58919999999999,101.23259999999999" fill="none" stroke="#64748b" stroke-width="1.8288000000000002" stroke-linecap="round" stroke-linejoin="round"/>
<polyline points="108.58919999999999,101.23259999999999 108.58919999999999,79.2222" fill="none" stroke="#64748b" stroke-width="1.8288000000000002" stroke-linecap="round" stroke-linejoin="round"/>
<polyline points="108.58919999999999,79.2222 93.17039999999999,79.2222" fill="none" stroke="#64748b" stroke-width="1.8288000000000002" stroke-linecap="round" stroke-linejoin="round"/>
<circle cx="99.456" cy="97.8774" r="0.7200000000000006" fill="none" stroke="#2563eb" stroke-width="0.7"/>
  <text x="87.45599999999999" y="91.4274" font-size="11" font-family="Arial" text-anchor="middle" fill="#2563eb">R37</text>
  <text x="87.45599999999999" y="77.0274" font-size="8" font-family="Arial" text-anchor="middle" fill="#2563eb">r180 bottom</text>
</g>
<g><polygon points="110.25599999999999,53.135400000000004 97.05599999999998,53.135400000000004 97.05599999999998,60.33539999999999 110.25599999999999,60.33539999999999" fill="#2563eb" opacity="0.9"/><title>U10.3 bottom</title></g>
<g><polygon points="110.25599999999999,41.7354 97.05599999999998,41.7354 97.05599999999998,48.935399999999994 110.25599999999999,48.935399999999994" fill="#2563eb" opacity="0.9"/><title>U10.2 bottom</title></g>
<g><polygon points="110.25599999999999,30.336599999999997 97.05599999999998,30.336599999999997 97.05599999999998,37.5366 110.25599999999999,37.5366" fill="#2563eb" opacity="0.9"/><title>U10.1 bottom</title></g>
<g><polygon points="77.856,30.336599999999997 64.65599999999999,30.336599999999997 64.65599999999999,37.5366 77.856,37.5366" fill="#2563eb" opacity="0.9"/><title>U10.6 bottom</title></g>
<g><polygon points="77.856,41.7354 64.65599999999999,41.7354 64.65599999999999,48.935399999999994 77.856,48.935399999999994" fill="#2563eb" opacity="0.9"/><title>U10.5 bottom</title></g>
<g><polygon points="77.856,53.135400000000004 64.65599999999999,53.135400000000004 64.65599999999999,60.33539999999999 77.856,60.33539999999999" fill="#2563eb" opacity="0.9"/><title>U10.4 bottom</title></g>
<g><polygon points="107.91599999999998,143.0514 90.996,143.0514 90.996,159.25140000000002 107.91599999999998,159.25140000000002" fill="#2563eb" opacity="0.9"/><title>C35.2 bottom</title></g>
<g><polygon points="83.916,143.0514 66.996,143.0514 66.996,159.25140000000002 83.916,159.25140000000002" fill="#2563eb" opacity="0.9"/><title>C35.1 bottom</title></g>
<g><polygon points="107.91599999999998,119.55539999999999 90.996,119.55539999999999 90.996,135.7554 107.91599999999998,135.7554" fill="#2563eb" opacity="0.9"/><title>C36.2 bottom</title></g>
<g><polygon points="83.916,119.55539999999999 66.996,119.55539999999999 66.996,135.7554 83.916,135.7554" fill="#2563eb" opacity="0.9"/><title>C36.1 bottom</title></g>
<g><polygon points="76.17419999999998,74.6634 85.65539999999999,74.6634 85.65539999999999,68.18339999999999 76.17419999999998,68.18339999999999" fill="#2563eb" opacity="0.9"/><title>C37.2 bottom</title></g>
<g><polygon points="89.25659999999999,74.6634 98.7378,74.6634 98.7378,68.18339999999999 89.25659999999999,68.18339999999999" fill="#2563eb" opacity="0.9"/><title>C37.1 bottom</title></g>
<g><polygon points="68.20800000000001,201.5394 50.20800000000001,201.5394 50.20800000000001,245.93939999999998 68.20800000000001,245.93939999999998" fill="#2563eb" opacity="0.9"/><title>U11.1 bottom</title></g>
<g><polygon points="100.60800000000003,201.5394 82.60800000000003,201.5394 82.60800000000003,245.93939999999998 100.60800000000003,245.93939999999998" fill="#2563eb" opacity="0.9"/><title>U11.2 bottom</title></g>
<g><polygon points="33.528000000000006,68.7792 33.52799999999999,61.99079999999999 27.048000000000005,61.99079999999999 27.048000000000005,68.7792" fill="#2563eb" opacity="0.9"/><title>R32.2 bottom</title></g>
<g><polygon points="33.52799999999999,58.391999999999996 33.52799999999999,51.6036 27.047999999999995,51.6036 27.048000000000005,58.391999999999996" fill="#2563eb" opacity="0.9"/><title>R32.1 bottom</title></g>
<g><polygon points="38.544,106.14720000000001 38.54399999999998,99.3588 32.06399999999999,99.35880000000002 32.06399999999999,106.14720000000001" fill="#2563eb" opacity="0.9"/><title>R33.2 bottom</title></g>
<g><polygon points="38.54399999999998,95.75999999999999 38.54399999999998,88.9716 32.063999999999986,88.9716 32.06399999999999,95.76" fill="#2563eb" opacity="0.9"/><title>R33.1 bottom</title></g>
<g><polygon points="45.83999999999999,86.2776 45.83999999999999,95.7588 52.31999999999999,95.7588 52.31999999999999,86.2776" fill="#2563eb" opacity="0.9"/><title>C39.2 bottom</title></g>
<g><polygon points="45.83999999999999,99.36000000000001 45.83999999999999,108.8412 52.31999999999999,108.8412 52.31999999999999,99.36000000000001" fill="#2563eb" opacity="0.9"/><title>C39.1 bottom</title></g>
<g><polygon points="76.17419999999998,112.2594 85.65539999999999,112.2594 85.65539999999999,105.7794 76.17419999999998,105.7794" fill="#2563eb" opacity="0.9"/><title>C40.2 bottom</title></g>
<g><polygon points="89.25659999999999,112.2594 98.7378,112.25939999999999 98.7378,105.7794 89.25659999999999,105.7794" fill="#2563eb" opacity="0.9"/><title>C40.1 bottom</title></g>
<g><polygon points="57.34199999999999,78.9864 57.34199999999999,65.3964 40.81799999999999,65.3964 40.81799999999999,78.9864" fill="#2563eb" opacity="0.9"/><title>R34.2 bottom</title></g>
<g><polygon points="57.34199999999999,54.98639999999999 57.34199999999999,41.39639999999999 40.817999999999984,41.39639999999999 40.81799999999999,54.9864" fill="#2563eb" opacity="0.9"/><title>R34.1 bottom</title></g>
<g><polygon points="91.17600000000002,167.41140000000001 91.17600000000002,177.01139999999998 101.97600000000001,177.01139999999998 101.97600000000001,167.41140000000001" fill="#2563eb" opacity="0.9"/><title>C42.2 bottom</title></g>
<g><polygon points="91.17600000000002,184.2126 91.17600000000002,193.81259999999997 101.97600000000001,193.81259999999997 101.97600000000001,184.2126" fill="#2563eb" opacity="0.9"/><title>C42.1 bottom</title></g>
<g><polygon points="72.936,167.41140000000001 72.936,177.01139999999998 83.73600000000002,177.01139999999998 83.73600000000002,167.41140000000001" fill="#2563eb" opacity="0.9"/><title>C43.2 bottom</title></g>
<g><polygon points="72.936,184.2126 72.936,193.81259999999997 83.73600000000002,193.81259999999997 83.73600000000002,184.2126" fill="#2563eb" opacity="0.9"/><title>C43.1 bottom</title></g>
<g><polygon points="68.66099999999999,98.48939999999999 82.25099999999999,98.48939999999999 82.25099999999999,81.9654 68.66099999999999,81.9654" fill="#2563eb" opacity="0.9"/><title>R37.2 bottom</title></g>
<g><polygon points="92.66099999999999,98.48939999999999 106.251,98.48939999999999 106.251,81.96539999999999 92.66099999999999,81.9654" fill="#2563eb" opacity="0.9"/><title>R37.1 bottom</title></g>

</svg>