<svg xmlns="http://www.w3.org/2000/svg" width="81.8544" height="83.928" viewBox="0 0 81.8544 83.928">
<rect x="0" y="0" width="81.8544" height="83.928" fill="#f8fafc"/>
<rect x="0.5" y="0.5" width="80.8544" height="82.928" fill="#f8fafc" stroke="#cbd5e1" stroke-width="1"/>




<g>
  
  
  
  
  <circle cx="50.528400000000005" cy="27.432000000000002" r="0.7200000000000006" fill="none" stroke="#dc2626" stroke-width="0.7"/>
<polygon points="50.52720000000001,27.432000000000002 50.52720000000001,37.032 31.327199999999998,37.032 31.327199999999998,27.432000000000002 50.52720000000001,27.432000000000002" fill="none" stroke="#dc2626" stroke-width="0.7" stroke-linecap="round" stroke-linejoin="round"/>
<polyline points="35.812799999999996,24.3048 24.306,24.3048" fill="none" stroke="#64748b" stroke-width="1.8288000000000002" stroke-linecap="round" stroke-linejoin="round"/>
<polyline points="24.306,24.3048 24.306,40.1592" fill="none" stroke="#64748b" stroke-width="1.8288000000000002" stroke-linecap="round" stroke-linejoin="round"/>
<polyline points="24.306,40.1592 35.812799999999996,40.1592" fill="none" stroke="#64748b" stroke-width="1.8288000000000002" stroke-linecap="round" stroke-linejoin="round"/>
<polyline points="46.0416,24.3048 57.5484,24.3048" fill="none" stroke="#64748b" stroke-width="1.8288000000000002" stroke-linecap="round" stroke-linejoin="round"/>
<polyline points="57.5484,24.3048 57.5484,40.1592" fill="none" stroke="#64748b" stroke-width="1.8288000000000002" stroke-linecap="round" stroke-linejoin="round"/>
<polyline points="57.5484,40.1592 46.0416,40.1592" fill="none" stroke="#64748b" stroke-width="1.8288000000000002" stroke-linecap="round" stroke-linejoin="round"/>
  <text x="40.9272" y="33.432" font-size="11" font-family="Arial" text-anchor="middle" fill="#dc2626">R7</text>
  <text x="40.9272" y="19.031999999999996" font-size="8" font-family="Arial" text-anchor="middle" fill="#dc2626">r0 top</text>
</g>
<g>
  
  
  
  
  <circle cx="50.528400000000005" cy="46.896" r="0.7200000000000006" fill="none" stroke="#dc2626" stroke-width="0.7"/>
<polygon points="50.52720000000001,46.896 50.52720000000001,56.496 31.327199999999998,56.496 31.327199999999998,46.896 50.52720000000001,46.896" fill="none" stroke="#dc2626" stroke-width="0.7" stroke-linecap="round" stroke-linejoin="round"/>
<polyline points="35.812799999999996,43.7688 24.306,43.7688" fill="none" stroke="#64748b" stroke-width="1.8288000000000002" stroke-linecap="round" stroke-linejoin="round"/>
<polyline points="24.306,43.7688 24.306,59.623200000000004" fill="none" stroke="#64748b" stroke-width="1.8288000000000002" stroke-linecap="round" stroke-linejoin="round"/>
<polyline points="24.306,59.623200000000004 35.812799999999996,59.623200000000004" fill="none" stroke="#64748b" stroke-width="1.8288000000000002" stroke-linecap="round" stroke-linejoin="round"/>
<polyline points="46.0416,43.7688 57.5484,43.7688" fill="none" stroke="#64748b" stroke-width="1.8288000000000002" stroke-linecap="round" stroke-linejoin="round"/>
<polyline points="57.5484,43.7688 57.5484,59.623200000000004" fill="none" stroke="#64748b" stroke-width="1.8288000000000002" stroke-linecap="round" stroke-linejoin="round"/>
<polyline points="57.5484,59.623200000000004 46.0416,59.623200000000004" fill="none" stroke="#64748b" stroke-width="1.8288000000000002" stroke-linecap="round" stroke-linejoin="round"/>
  <text x="40.9272" y="52.895999999999994" font-size="11" font-family="Arial" text-anchor="middle" fill="#dc2626">R8</text>
  <text x="40.9272" y="38.495999999999995" font-size="8" font-family="Arial" text-anchor="middle" fill="#dc2626">r0 top</text>
</g>
<g><polygon points="27.047400000000003,27.048000000000002 36.72540000000001,27.048000000000002 36.72540000000001,37.416 27.047400000000003,37.416" fill="#dc2626" opacity="0.9"/><title>R7.2 top</title></g>
<g><polygon points="45.129,27.048000000000002 54.806999999999995,27.048000000000002 54.806999999999995,37.416 45.129,37.416" fill="#dc2626" opacity="0.9"/><title>R7.1 top</title></g>
<g><polygon points="27.047400000000003,46.512 36.72540000000001,46.512 36.72540000000001,56.88 27.047400000000003,56.88" fill="#dc2626" opacity="0.9"/><title>R8.2 top</title></g>
<g><polygon points="45.129,46.512 54.806999999999995,46.512 54.806999999999995,56.88 45.129,56.88" fill="#dc2626" opacity="0.9"/><title>R8.1 top</title></g>

</svg>