<svg xmlns="http://www.w3.org/2000/svg" width="328.4886" height="490.0086" viewBox="0 0 328.4886 490.0086">
<rect x="0" y="0" width="328.4886" height="490.0086" fill="#f8fafc"/>
<rect x="0.5" y="0.5" width="327.4886" height="489.0086" fill="#f8fafc" stroke="#cbd5e1" stroke-width="1"/>

<line x1="146.40120000000002" y1="32.52060000000003" x2="129.666" y2="54.491399999999985" stroke="#ef4444" stroke-width="1" stroke-dasharray="4 3"><title>BAT+</title></line>
<line x1="146.40120000000002" y1="32.52060000000003" x2="284.08799999999997" y2="67.60859999999998" stroke="#ef4444" stroke-width="1" stroke-dasharray="4 3"><title>BAT+</title></line>
<line x1="185.6388" y1="32.52060000000003" x2="194.046" y2="54.491399999999985" stroke="#ef4444" stroke-width="1" stroke-dasharray="4 3"><title>VBUS_5V</title></line>
<line x1="194.046" y1="54.491399999999985" x2="129.666" y2="100.21139999999997" stroke="#ef4444" stroke-width="1" stroke-dasharray="4 3"><title>VBUS_5V</title></line>
<line x1="129.666" y1="100.21139999999997" x2="126.28680000000001" y2="377.7582" stroke="#ef4444" stroke-width="1" stroke-dasharray="4 3"><title>VBUS_5V</title></line>
<line x1="126.28680000000001" y1="377.7582" x2="68.68560000000001" y2="377.7582" stroke="#ef4444" stroke-width="1" stroke-dasharray="4 3"><title>VBUS_5V</title></line>
<line x1="221.5752" y1="84.97259999999997" x2="194.046" y2="84.97139999999997" stroke="#ef4444" stroke-width="1" stroke-dasharray="4 3"><title>PROG_SET</title></line>
<line x1="70.4928" y1="352.04459999999995" x2="82.4868" y2="377.7582" stroke="#ef4444" stroke-width="1" stroke-dasharray="4 3"><title>CC1</title></line>
<line x1="136.2672" y1="353.76059999999995" x2="118.48680000000002" y2="377.7582" stroke="#ef4444" stroke-width="1" stroke-dasharray="4 3"><title>CC2</title></line>

<g>
  <circle cx="306.76800000000003" cy="207.62939999999998" r="48" fill="rgba(15,23,42,0.08)" stroke="#475569" stroke-width="1" stroke-dasharray="4 3"><title>MH2 keepout</title></circle>
  <circle cx="306.76800000000003" cy="207.62939999999998" r="19.200000000000003" fill="#f8fafc" stroke="#0f172a" stroke-width="1.5"><title>MH2 drill 3.2mm</title></circle>
</g>
<g>
  
  
  
  
  <polygon points="147.60000000000002,27.720600000000047 147.60000000000002,37.32060000000001 128.40120000000002,37.32060000000001 128.40120000000002,27.720600000000047 147.60000000000002,27.720600000000047" fill="none" stroke="#dc2626" stroke-width="0.7" stroke-linecap="round" stroke-linejoin="round"/>
<polyline points="141.3624,24.00540000000001 150.9624,24.00540000000001" fill="none" stroke="#64748b" stroke-width="3.048" stroke-linecap="round" stroke-linejoin="round"/>
<polyline points="134.6376,23.999400000000065 125.0376,23.999400000000065" fill="none" stroke="#64748b" stroke-width="3.048" stroke-linecap="round" stroke-linejoin="round"/>
<polyline points="141.3624,41.04180000000004 150.9624,41.04180000000004" fill="none" stroke="#64748b" stroke-width="3.048" stroke-linecap="round" stroke-linejoin="round"/>
<polyline points="134.6376,41.03580000000005 125.0376,41.03580000000005" fill="none" stroke="#64748b" stroke-width="3.048" stroke-linecap="round" stroke-linejoin="round"/>
<polyline points="154.68,27.72300000000004 154.68,37.32420000000005" fill="none" stroke="#64748b" stroke-width="3.048" stroke-linecap="round" stroke-linejoin="round"/>
<polyline points="121.32000000000002,37.31700000000002 121.32000000000002,27.717000000000013" fill="none" stroke="#64748b" stroke-width="3.048" stroke-linecap="round" stroke-linejoin="round"/>
<polyline points="125.03880000000001,41.03580000000005 121.32000000000002,37.31700000000002" fill="none" stroke="#64748b" stroke-width="3.048" stroke-linecap="round" stroke-linejoin="round"/>
<polyline points="121.32000000000002,27.718200000000053 125.03880000000001,23.999400000000065" fill="none" stroke="#64748b" stroke-width="3.048" stroke-linecap="round" stroke-linejoin="round"/>
<polyline points="150.9624,24.00540000000001 154.68,27.72300000000004" fill="none" stroke="#64748b" stroke-width="3.048" stroke-linecap="round" stroke-linejoin="round"/>
<polyline points="154.68,37.32300000000005 150.9624,41.04180000000004" fill="none" stroke="#64748b" stroke-width="3.048" stroke-linecap="round" stroke-linejoin="round"/>
<circle cx="147.6024" cy="27.719400000000007" r="0.720000000000006" fill="none" stroke="#dc2626" stroke-width="0.7"/>
  <text x="138" y="33.72060000000005" font-size="11" font-family="Arial" text-anchor="middle" fill="#dc2626">C10</text>
  <text x="138" y="19.320600000000013" font-size="8" font-family="Arial" text-anchor="middle" fill="#dc2626">r0 top</text>
</g>
<g>
  
  
  
  
  <polygon points="184.44,37.32060000000001 184.44,27.720600000000047 203.63880000000003,27.720600000000047 203.63880000000003,37.32060000000001 184.44,37.32060000000001" fill="none" stroke="#dc2626" stroke-width="0.7" stroke-linecap="round" stroke-linejoin="round"/>
<polyline points="190.6776,41.03580000000005 181.07760000000002,41.03580000000005" fill="none" stroke="#64748b" stroke-width="3.048" stroke-linecap="round" stroke-linejoin="round"/>
<polyline points="197.40240000000003,41.04180000000004 207.0024,41.04180000000004" fill="none" stroke="#64748b" stroke-width="3.048" stroke-linecap="round" stroke-linejoin="round"/>
<polyline points="190.6776,23.999400000000065 181.07760000000002,23.999400000000065" fill="none" stroke="#64748b" stroke-width="3.048" stroke-linecap="round" stroke-linejoin="round"/>
<polyline points="197.40240000000003,24.00540000000001 207.0024,24.00540000000001" fill="none" stroke="#64748b" stroke-width="3.048" stroke-linecap="round" stroke-linejoin="round"/>
<polyline points="177.36,37.31820000000002 177.36,27.717000000000013" fill="none" stroke="#64748b" stroke-width="3.048" stroke-linecap="round" stroke-linejoin="round"/>
<polyline points="210.72000000000003,27.724199999999996 210.72000000000003,37.32420000000005" fill="none" stroke="#64748b" stroke-width="3.048" stroke-linecap="round" stroke-linejoin="round"/>
<polyline points="207.00119999999998,24.00540000000001 210.72000000000003,27.724199999999996" fill="none" stroke="#64748b" stroke-width="3.048" stroke-linecap="round" stroke-linejoin="round"/>
<polyline points="210.72000000000003,37.32300000000001 207.00119999999998,41.04180000000004" fill="none" stroke="#64748b" stroke-width="3.048" stroke-linecap="round" stroke-linejoin="round"/>
<polyline points="181.07760000000002,41.03580000000005 177.36,37.31820000000002" fill="none" stroke="#64748b" stroke-width="3.048" stroke-linecap="round" stroke-linejoin="round"/>
<polyline points="177.36,27.718200000000053 181.07760000000002,23.999400000000065" fill="none" stroke="#64748b" stroke-width="3.048" stroke-linecap="round" stroke-linejoin="round"/>
<circle cx="184.4376" cy="37.32180000000005" r="0.7199999999999953" fill="none" stroke="#dc2626" stroke-width="0.7"/>
  <text x="194.04000000000002" y="33.72060000000005" font-size="11" font-family="Arial" text-anchor="middle" fill="#dc2626">C9</text>
  <text x="194.04000000000002" y="19.320600000000013" font-size="8" font-family="Arial" text-anchor="middle" fill="#dc2626">r180 top</text>
</g>
<g>
  
  
  
  
  <circle cx="221.01479999999998" cy="89.77259999999995" r="0.720000000000006" fill="none" stroke="#dc2626" stroke-width="0.7"/>
<polygon points="221.016,89.77259999999995 221.016,80.17259999999999 240.216,80.17259999999999 240.216,89.77259999999995 221.016,89.77259999999995" fill="none" stroke="#dc2626" stroke-width="0.7" stroke-linecap="round" stroke-linejoin="round"/>
<polyline points="235.73039999999997,92.89979999999996 247.23719999999997,92.89979999999996" fill="none" stroke="#64748b" stroke-width="1.8288000000000002" stroke-linecap="round" stroke-linejoin="round"/>
<polyline points="247.23719999999997,92.89979999999996 247.23719999999997,77.04539999999999" fill="none" stroke="#64748b" stroke-width="1.8288000000000002" stroke-linecap="round" stroke-linejoin="round"/>
<polyline points="247.23719999999997,77.04539999999999 235.73039999999997,77.04539999999999" fill="none" stroke="#64748b" stroke-width="1.8288000000000002" stroke-linecap="round" stroke-linejoin="round"/>
<polyline points="225.50160000000002,92.89979999999996 213.99480000000003,92.89979999999996" fill="none" stroke="#64748b" stroke-width="1.8288000000000002" stroke-linecap="round" stroke-linejoin="round"/>
<polyline points="213.99480000000003,92.89979999999996 213.99480000000003,77.04539999999999" fill="none" stroke="#64748b" stroke-width="1.8288000000000002" stroke-linecap="round" stroke-linejoin="round"/>
<polyline points="213.99480000000003,77.04539999999999 225.50160000000002,77.04539999999999" fill="none" stroke="#64748b" stroke-width="1.8288000000000002" stroke-linecap="round" stroke-linejoin="round"/>
  <text x="230.61599999999999" y="86.17259999999999" font-size="11" font-family="Arial" text-anchor="middle" fill="#dc2626">R7</text>
  <text x="230.61599999999999" y="71.77259999999995" font-size="8" font-family="Arial" text-anchor="middle" fill="#dc2626">r180 top</text>
</g>
<g>
  
  
  
  
  <circle cx="71.0532" cy="347.2446" r="0.7200000000000006" fill="none" stroke="#dc2626" stroke-width="0.7"/>
<polygon points="71.052,347.2446 71.052,356.84459999999996 51.852000000000004,356.84459999999996 51.852000000000004,347.2446 71.052,347.2446" fill="none" stroke="#dc2626" stroke-width="0.7" stroke-linecap="round" stroke-linejoin="round"/>
<polyline points="56.33760000000001,344.1174 44.83080000000001,344.1174" fill="none" stroke="#64748b" stroke-width="1.8288000000000002" stroke-linecap="round" stroke-linejoin="round"/>
<polyline points="44.83080000000001,344.1174 44.83080000000001,359.9718" fill="none" stroke="#64748b" stroke-width="1.8288000000000002" stroke-linecap="round" stroke-linejoin="round"/>
<polyline points="44.83080000000001,359.9718 56.33760000000001,359.9718" fill="none" stroke="#64748b" stroke-width="1.8288000000000002" stroke-linecap="round" stroke-linejoin="round"/>
<polyline points="66.5664,344.1174 78.0732,344.1174" fill="none" stroke="#64748b" stroke-width="1.8288000000000002" stroke-linecap="round" stroke-linejoin="round"/>
<polyline points="78.0732,344.1174 78.0732,359.9718" fill="none" stroke="#64748b" stroke-width="1.8288000000000002" stroke-linecap="round" stroke-linejoin="round"/>
<polyline points="78.0732,359.9718 66.5664,359.9718" fill="none" stroke="#64748b" stroke-width="1.8288000000000002" stroke-linecap="round" stroke-linejoin="round"/>
  <text x="61.452000000000005" y="353.2446" font-size="11" font-family="Arial" text-anchor="middle" fill="#dc2626">R1</text>
  <text x="61.452000000000005" y="338.84459999999996" font-size="8" font-family="Arial" text-anchor="middle" fill="#dc2626">r0 top</text>
</g>
<g>
  
  
  
  
  <circle cx="250.4868" cy="44.20979999999999" r="0.7199999999999847" fill="none" stroke="#dc2626" stroke-width="0.7"/>
<polygon points="281.04,44.55659999999999 281.04,49.12859999999999 258.18,49.12859999999999 258.18,108.56459999999998 281.04,108.56459999999998 281.04,114.66059999999997 250.56000000000003,114.66059999999997 250.56000000000003,44.55659999999999 281.04,44.55659999999999" fill="none" stroke="#dc2626" stroke-width="0.7" stroke-linecap="round" stroke-linejoin="round"/>
<polygon points="288.65999999999997,43.60859999999998 288.65999999999997,49.70459999999997 297.804,49.70459999999997 297.804,75.6126 303.90000000000003,75.6126 303.90000000000003,43.0326 288.65999999999997,43.60859999999998" fill="none" stroke="#dc2626" stroke-width="0.7" stroke-linecap="round" stroke-linejoin="round"/>
<polygon points="297.804,82.6566 303.90000000000003,82.6566 303.90000000000003,114.66059999999997 288.65999999999997,114.66059999999997 288.65999999999997,108.56459999999998 297.804,108.56459999999998 297.804,82.6566" fill="none" stroke="#dc2626" stroke-width="0.7" stroke-linecap="round" stroke-linejoin="round"/>
<polygon points="304.48800000000006,115.00859999999997 250.48800000000003,115.00859999999997 250.48800000000003,44.20859999999999 304.48800000000006,44.20859999999999 304.48800000000006,115.00859999999997" fill="none" stroke="#dc2626" stroke-width="0.7" stroke-linecap="round" stroke-linejoin="round"/>
<polyline points="281.04,114.66059999999997 281.04,108.56459999999998" fill="none" stroke="#64748b" stroke-width="3.048" stroke-linecap="round" stroke-linejoin="round"/>
<polyline points="281.04,108.56459999999998 258.18,108.56459999999998" fill="none" stroke="#64748b" stroke-width="3.048" stroke-linecap="round" stroke-linejoin="round"/>
<polyline points="258.18,108.56459999999998 258.18,49.12859999999999" fill="none" stroke="#64748b" stroke-width="3.048" stroke-linecap="round" stroke-linejoin="round"/>
<polyline points="258.18,49.12859999999999 281.04,49.12859999999999" fill="none" stroke="#64748b" stroke-width="3.048" stroke-linecap="round" stroke-linejoin="round"/>
<polyline points="281.04,49.12859999999999 281.04,44.55659999999999" fill="none" stroke="#64748b" stroke-width="3.048" stroke-linecap="round" stroke-linejoin="round"/>
<polyline points="288.65999999999997,43.60859999999998 288.65999999999997,49.70459999999997" fill="none" stroke="#64748b" stroke-width="3.048" stroke-linecap="round" stroke-linejoin="round"/>
<polyline points="288.65999999999997,49.70459999999997 297.804,49.70459999999997" fill="none" stroke="#64748b" stroke-width="3.048" stroke-linecap="round" stroke-linejoin="round"/>
<polyline points="297.804,49.70459999999997 297.804,75.6126" fill="none" stroke="#64748b" stroke-width="3.048" stroke-linecap="round" stroke-linejoin="round"/>
<polyline points="297.804,75.6126 303.90000000000003,75.6126" fill="none" stroke="#64748b" stroke-width="3.048" stroke-linecap="round" stroke-linejoin="round"/>
<polyline points="288.65999999999997,114.66059999999997 288.65999999999997,108.56459999999998" fill="none" stroke="#64748b" stroke-width="3.048" stroke-linecap="round" stroke-linejoin="round"/>
<polyline points="288.65999999999997,108.56459999999998 297.804,108.56459999999998" fill="none" stroke="#64748b" stroke-width="3.048" stroke-linecap="round" stroke-linejoin="round"/>
<polyline points="297.804,108.56459999999998 297.804,82.6566" fill="none" stroke="#64748b" stroke-width="3.048" stroke-linecap="round" stroke-linejoin="round"/>
<polyline points="297.804,82.6566 303.90000000000003,82.6566" fill="none" stroke="#64748b" stroke-width="3.048" stroke-linecap="round" stroke-linejoin="round"/>
<polygon points="250.4868,115.60859999999998 250.4868,43.60859999999998 304.4892,43.60859999999998 304.4892,115.60859999999998 250.4868,115.60859999999998" fill="none" stroke="#64748b" stroke-width="3.048" stroke-linecap="round" stroke-linejoin="round"/>
  <text x="277.48800000000006" y="80.8086" font-size="11" font-family="Arial" text-anchor="middle" fill="#dc2626">J1</text>
  <text x="277.48800000000006" y="66.40859999999996" font-size="8" font-family="Arial" text-anchor="middle" fill="#dc2626">r90 top</text>
</g>
<g>
  
  
  
  
  <circle cx="197.856" cy="107.35019999999996" r="0.7199999999999847" fill="none" stroke="#dc2626" stroke-width="0.7"/>
<circle cx="202.65599999999998" cy="100.21139999999997" r="1.8011999999999802" fill="none" stroke="#dc2626" stroke-width="3.5999999999999996"/>
<polygon points="185.256,107.35139999999996 138.45600000000002,107.35139999999996 138.45600000000002,47.351399999999956 185.256,47.351399999999956 185.256,107.35139999999996" fill="none" stroke="#dc2626" stroke-width="0.7" stroke-linecap="round" stroke-linejoin="round"/>
<polyline points="180.11280000000002,108.26579999999996 143.5992,108.26579999999996" fill="none" stroke="#64748b" stroke-width="1.8288000000000002" stroke-linecap="round" stroke-linejoin="round"/>
<polyline points="143.5992,108.26579999999996 143.5992,46.436999999999955" fill="none" stroke="#64748b" stroke-width="1.8288000000000002" stroke-linecap="round" stroke-linejoin="round"/>
<polyline points="143.5992,46.436999999999955 180.1128,46.436999999999955" fill="none" stroke="#64748b" stroke-width="1.8288000000000002" stroke-linecap="round" stroke-linejoin="round"/>
<polyline points="180.1128,46.436999999999955 180.11280000000002,108.26579999999996" fill="none" stroke="#64748b" stroke-width="1.8288000000000002" stroke-linecap="round" stroke-linejoin="round"/>
<circle cx="174.048" cy="103.25939999999994" r="1.8012000000000228" fill="none" stroke="#64748b" stroke-width="3.5999999999999996"/>
<circle cx="194.046" cy="109.41899999999995" r="1.8012000000000228" fill="none" stroke="#64748b" stroke-width="3.5999999999999996"/>
  <text x="161.856" y="80.02859999999998" font-size="11" font-family="Arial" text-anchor="middle" fill="#dc2626">U2</text>
  <text x="161.856" y="65.62859999999995" font-size="8" font-family="Arial" text-anchor="middle" fill="#dc2626">r90 top</text>
</g>
<g>
  
  
  
  
  <circle cx="135.70680000000002" cy="358.56059999999997" r="0.7200000000000006" fill="none" stroke="#dc2626" stroke-width="0.7"/>
<polygon points="135.70800000000003,358.56059999999997 135.70800000000003,348.9606 154.90800000000002,348.9606 154.90800000000002,358.56059999999997 135.70800000000003,358.56059999999997" fill="none" stroke="#dc2626" stroke-width="0.7" stroke-linecap="round" stroke-linejoin="round"/>
<polyline points="150.42239999999998,361.6878 161.92919999999998,361.6878" fill="none" stroke="#64748b" stroke-width="1.8288000000000002" stroke-linecap="round" stroke-linejoin="round"/>
<polyline points="161.92919999999998,361.6878 161.92919999999998,345.8334" fill="none" stroke="#64748b" stroke-width="1.8288000000000002" stroke-linecap="round" stroke-linejoin="round"/>
<polyline points="161.92919999999998,345.8334 150.42239999999998,345.8334" fill="none" stroke="#64748b" stroke-width="1.8288000000000002" stroke-linecap="round" stroke-linejoin="round"/>
<polyline points="140.1936,361.6878 128.6868,361.68780000000004" fill="none" stroke="#64748b" stroke-width="1.8288000000000002" stroke-linecap="round" stroke-linejoin="round"/>
<polyline points="128.6868,361.68780000000004 128.6868,345.8334" fill="none" stroke="#64748b" stroke-width="1.8288000000000002" stroke-linecap="round" stroke-linejoin="round"/>
<polyline points="128.6868,345.8334 140.1936,345.8334" fill="none" stroke="#64748b" stroke-width="1.8288000000000002" stroke-linecap="round" stroke-linejoin="round"/>
  <text x="145.308" y="354.9606" font-size="11" font-family="Arial" text-anchor="middle" fill="#dc2626">R6</text>
  <text x="145.308" y="340.56059999999997" font-size="8" font-family="Arial" text-anchor="middle" fill="#dc2626">r180 top</text>
</g>
<g>
  
  
  
  
  <circle cx="28.24800000000001" cy="374.8086" r="0.7199999999999953" fill="none" stroke="#dc2626" stroke-width="0.7"/>
<circle cx="62.8068" cy="390.65459999999996" r="1.5" fill="none" stroke="#dc2626" stroke-width="3"/>
<circle cx="132.1668" cy="390.65459999999996" r="1.5" fill="none" stroke="#dc2626" stroke-width="3"/>
<polygon points="43.84800000000002,466.0086 43.84800000000001,377.8086 151.12800000000001,377.80859999999996 151.12800000000001,466.0086 43.84800000000002,466.0086" fill="none" stroke="#dc2626" stroke-width="0.7" stroke-linecap="round" stroke-linejoin="round"/>
<polyline points="142.2624,377.80859999999996 147.1536,377.80859999999996" fill="none" stroke="#64748b" stroke-width="3.048" stroke-linecap="round" stroke-linejoin="round"/>
<polyline points="47.82000000000001,377.8086 52.7148,377.8086" fill="none" stroke="#64748b" stroke-width="3.048" stroke-linecap="round" stroke-linejoin="round"/>
<polyline points="151.1268,420.03779999999995 151.1268,396.42539999999997" fill="none" stroke="#64748b" stroke-width="3.048" stroke-linecap="round" stroke-linejoin="round"/>
<polyline points="151.1268,466.00739999999996 151.1268,443.58539999999994" fill="none" stroke="#64748b" stroke-width="3.048" stroke-linecap="round" stroke-linejoin="round"/>
<polyline points="43.8468,420.03779999999995 43.8468,396.42539999999997" fill="none" stroke="#64748b" stroke-width="3.048" stroke-linecap="round" stroke-linejoin="round"/>
<polyline points="43.846800000000016,466.0074 43.8468,443.58539999999994" fill="none" stroke="#64748b" stroke-width="3.048" stroke-linecap="round" stroke-linejoin="round"/>
<polyline points="43.846800000000016,466.0074 151.1268,466.00739999999996" fill="none" stroke="#64748b" stroke-width="3.048" stroke-linecap="round" stroke-linejoin="round"/>
  <text x="97.488" y="418.1094" font-size="11" font-family="Arial" text-anchor="middle" fill="#dc2626">J2</text>
  <text x="97.488" y="403.70939999999996" font-size="8" font-family="Arial" text-anchor="middle" fill="#dc2626">r180 top</text>
</g>
<g><polygon points="124.80000000000001,27.120599999999996 134.4,27.120599999999996 134.4,37.92060000000002 124.80000000000001,37.92060000000002" fill="#dc2626" opacity="0.9"/><title>C10.2 top</title></g>
<g><polygon points="141.6012,27.120599999999996 151.20120000000003,27.120599999999996 151.20120000000003,37.92060000000002 141.6012,37.92060000000002" fill="#dc2626" opacity="0.9"/><title>C10.1 top</title></g>
<g><polygon points="207.24,37.92060000000002 197.64,37.92060000000002 197.64,27.120599999999996 207.24,27.120599999999996" fill="#dc2626" opacity="0.9"/><title>C9.2 top</title></g>
<g><polygon points="190.43880000000001,37.92060000000002 180.8388,37.92060000000002 180.8388,27.120599999999996 190.43880000000001,27.120599999999996" fill="#dc2626" opacity="0.9"/><title>C9.1 top</title></g>
<g><polygon points="244.49580000000003,90.15659999999995 234.81779999999998,90.15659999999995 234.81779999999998,79.78859999999999 244.49580000000003,79.78859999999999" fill="#dc2626" opacity="0.9"/><title>R7.2 top</title></g>
<g><polygon points="226.4142,90.15659999999995 216.73619999999997,90.15659999999995 216.73619999999997,79.78859999999999 226.4142,79.78859999999999" fill="#dc2626" opacity="0.9"/><title>R7.1 top</title></g>
<g><polygon points="47.57220000000001,346.8606 57.25020000000001,346.8606 57.25020000000001,357.22860000000003 47.57220000000001,357.22860000000003" fill="#dc2626" opacity="0.9"/><title>R1.2 top</title></g>
<g><polygon points="65.6538,346.8606 75.3318,346.8606 75.3318,357.22860000000003 65.6538,357.22860000000003" fill="#dc2626" opacity="0.9"/><title>R1.1 top</title></g>
<g><polygon points="293.68800000000005,82.00859999999997 293.68800000000005,101.20859999999999 274.48800000000006,101.20859999999999 274.48800000000006,82.00859999999997" fill="#dc2626" opacity="0.9"/><circle cx="284.08799999999997" cy="91.60859999999998" r="5.4" fill="#f8fafc" stroke="#334155" stroke-width="0.8"/><title>J1.2 top</title></g>
<g><polygon points="293.68800000000005,58.00859999999997 293.68800000000005,77.20859999999999 274.48800000000006,77.20859999999999 274.48800000000006,58.00859999999997" fill="#dc2626" opacity="0.9"/><circle cx="284.08799999999997" cy="67.60859999999998" r="5.4" fill="#f8fafc" stroke="#334155" stroke-width="0.8"/><title>J1.1 top</title></g>
<g><polygon points="175.656,58.15139999999998 175.656,96.55139999999997 148.056,96.55139999999997 148.056,58.15139999999998" fill="#dc2626" opacity="0.9"/><title>U2.9 top</title></g>
<g><polygon points="205.23600000000002,96.43139999999995 205.23600000000002,103.99139999999998 182.856,103.99139999999998 182.856,96.43139999999995" fill="#dc2626" opacity="0.9"/><title>U2.1 top</title></g>
<g><polygon points="205.23600000000002,81.19139999999996 205.23600000000002,88.75139999999995 182.856,88.75139999999995 182.856,81.19139999999996" fill="#dc2626" opacity="0.9"/><title>U2.2 top</title></g>
<g><polygon points="205.23600000000002,65.95139999999996 205.23600000000002,73.51139999999995 182.856,73.51139999999995 182.856,65.95139999999996" fill="#dc2626" opacity="0.9"/><title>U2.3 top</title></g>
<g><polygon points="205.23600000000002,50.71139999999997 205.23600000000002,58.27139999999996 182.856,58.27139999999996 182.856,50.71139999999997" fill="#dc2626" opacity="0.9"/><title>U2.4 top</title></g>
<g><polygon points="140.856,96.43139999999995 140.856,103.99139999999998 118.47600000000001,103.99139999999998 118.47600000000001,96.43139999999995" fill="#dc2626" opacity="0.9"/><title>U2.8 top</title></g>
<g><polygon points="140.856,81.19139999999996 140.856,88.75139999999995 118.47600000000001,88.75139999999999 118.47600000000001,81.19139999999996" fill="#dc2626" opacity="0.9"/><title>U2.7 top</title></g>
<g><polygon points="140.856,65.95139999999996 140.856,73.51139999999995 118.47600000000001,73.51139999999995 118.47600000000001,65.95139999999996" fill="#dc2626" opacity="0.9"/><title>U2.6 top</title></g>
<g><polygon points="140.856,50.71139999999997 140.856,58.27139999999996 118.47600000000001,58.27139999999996 118.47600000000001,50.71139999999997" fill="#dc2626" opacity="0.9"/><title>U2.5 top</title></g>
<g><polygon points="159.1878,358.9446 149.5098,358.94460000000004 149.5098,348.5766 159.1878,348.5766" fill="#dc2626" opacity="0.9"/><title>R6.2 top</title></g>
<g><polygon points="141.1062,358.94460000000004 131.4282,358.94460000000004 131.4282,348.5766 141.1062,348.5766" fill="#dc2626" opacity="0.9"/><title>R6.1 top</title></g>
<g><polygon points="78.2856,384.6582 74.68560000000001,384.6582 74.68560000000001,370.8582 78.28559999999999,370.85819999999995" fill="#dc2626" opacity="0.9"/><title>J2.B8 top</title></g>
<g><polygon points="84.2868,384.6582 80.6868,384.6582 80.6868,370.85819999999995 84.2868,370.85819999999995" fill="#dc2626" opacity="0.9"/><title>J2.A5 top</title></g>
<g><polygon points="90.2856,384.6582 86.68560000000001,384.6582 86.6856,370.85819999999995 90.2856,370.85819999999995" fill="#dc2626" opacity="0.9"/><title>J2.B7 top</title></g>
<g><polygon points="96.2868,384.6582 92.6868,384.6582 92.6868,370.85819999999995 96.2868,370.85819999999995" fill="#dc2626" opacity="0.9"/><title>J2.A6 top</title></g>
<g><polygon points="102.28559999999999,384.6582 98.68560000000001,384.6582 98.68560000000001,370.85819999999995 102.28559999999999,370.85819999999995" fill="#dc2626" opacity="0.9"/><title>J2.A7 top</title></g>
<g><polygon points="108.28680000000001,384.6582 104.6868,384.6582 104.6868,370.85819999999995 108.2868,370.85819999999995" fill="#dc2626" opacity="0.9"/><title>J2.B6 top</title></g>
<g><polygon points="114.2832,384.6582 110.68320000000001,384.6582 110.68320000000001,370.85819999999995 114.2832,370.85819999999995" fill="#dc2626" opacity="0.9"/><title>J2.A8 top</title></g>
<g><polygon points="120.28680000000001,384.65819999999997 116.6868,384.6582 116.6868,370.85819999999995 120.2868,370.85819999999995" fill="#dc2626" opacity="0.9"/><title>J2.B5 top</title></g>
<g><polygon points="45.048,440.8109999999999 27.048000000000005,440.8109999999999 27.048000000000005,422.8109999999999 45.048,422.8109999999999" fill="#dc2626" opacity="0.9"/><title>J2.15 top</title></g>
<g><polygon points="167.928,440.8109999999999 149.928,440.8109999999999 149.928,422.8109999999999 167.928,422.8109999999999" fill="#dc2626" opacity="0.9"/><title>J2.16 top</title></g>
<g><polygon points="167.928,393.6522 149.928,393.6522 149.928,375.6522 167.928,375.65219999999994" fill="#dc2626" opacity="0.9"/><title>J2.14 top</title></g>
<g><polygon points="45.048,393.6522 27.048000000000005,393.6522 27.048000000000005,375.6522 45.048,375.6522" fill="#dc2626" opacity="0.9"/><title>J2.13 top</title></g>
<g><polygon points="62.688,384.6582 55.48800000000001,384.6582 55.48800000000001,370.8582 62.688,370.8582" fill="#dc2626" opacity="0.9"/><title>J2.A1B12 top</title></g>
<g><polygon points="72.28559999999999,384.6582 65.0856,384.6582 65.0856,370.8582 72.28559999999999,370.8582" fill="#dc2626" opacity="0.9"/><title>J2.A4B9 top</title></g>
<g><polygon points="129.8868,384.65819999999997 122.6868,384.65819999999997 122.6868,370.85819999999995 129.8868,370.85819999999995" fill="#dc2626" opacity="0.9"/><title>J2.B4A9 top</title></g>
<g><polygon points="139.488,384.65819999999997 132.288,384.65819999999997 132.288,370.85819999999995 139.488,370.85819999999995" fill="#dc2626" opacity="0.9"/><title>J2.B1A12 top</title></g>
<g><polygon points="66.7068,394.55459999999994 58.906800000000004,394.55460000000005 58.906800000000004,386.7546 66.7068,386.7546" fill="#dc2626" opacity="0.9"/><circle cx="62.8068" cy="390.65459999999996" r="3.9000000000000004" fill="#f8fafc" stroke="#334155" stroke-width="0.8"/><title>J2.MH1 top</title></g>
<g><polygon points="136.0668,394.55459999999994 128.2668,394.55459999999994 128.2668,386.7546 136.0668,386.7546" fill="#dc2626" opacity="0.9"/><circle cx="132.1668" cy="390.65459999999996" r="3.9000000000000004" fill="#f8fafc" stroke="#334155" stroke-width="0.8"/><title>J2.MH2 top</title></g>

</svg>